<svg height="512" viewBox="0 0 66 48" width="512" xmlns="http://www.w3.org/2000/svg"><g id="Page-1" fill="none" fill-rule="evenodd"><g id="signal_filled" fill="rgb(0,0,0)" fill-rule="nonzero" transform="translate(-658 -676)"><path id="signal,-phone,-mobile,-connection,-bar,-indicator" d="m660 706h8c1.104569 0 2 .895431 2 2v14c0 1.104569-.895431 2-2 2h-8c-1.104569 0-2-.895431-2-2v-14c0-1.104569.895431-2 2-2zm36-20h8c1.104569 0 2 .895431 2 2v34c0 1.104569-.895431 2-2 2h-8c-1.104569 0-2-.895431-2-2v-34c0-1.104569.895431-2 2-2zm18-10h8c1.104569 0 2 .895431 2 2v44c0 1.104569-.895431 2-2 2h-8c-1.104569 0-2-.895431-2-2v-44c0-1.104569.895431-2 2-2zm-36 21h8c1.104569 0 2 .895431 2 2v23c0 1.104569-.895431 2-2 2h-8c-1.104569 0-2-.895431-2-2v-23c0-1.104569.895431-2 2-2z"/></g></g></svg>