<svg id="Layer_1" enable-background="new 0 0 1024 1024" viewBox="0 0 1024 1024" xmlns="http://www.w3.org/2000/svg"><g id="video"><g id="XMLID_22_"><path id="XMLID_29_" d="m670.7 737.5c0 2.3-.2 4.6-.3 7-.3 4 .1-1.3.2-1.2.2.2-.5 2.9-.6 3.4-.4 2-.9 4-1.5 5.9-.3 1.1-.7 2.1-1.1 3.2-.2.6-.5 1.3-.7 1.9 1.1-2.5 1.3-3.1.7-1.7-2 3.7-3.7 7.4-6.1 10.9-.2.3-1.3 2.1-1.5 2.1.3 0 2.7-3.2.7-.9-1.7 2-3.5 3.9-5.3 5.8-1.3 1.2-2.6 2.3-3.9 3.5-3.4 3 3.7-2.4-.1.1-.7.5-1.4 1-2.2 1.5-1.7 1.1-3.4 2.1-5.1 3-1 .5-2 1-2.9 1.5-.6.3-1.2.6-1.8.8-1.4.6-.8.4 1.7-.7-3.8.4-7.8 2.6-11.6 3.4-.6.1-4.6 1.4-1.4.3 3.1-1-.7 0-1.5.1-1.9.1-3.7.2-5.6.2-5 0-10.1 0-15.1 0-33 0-65.9 0-98.9 0-48.8 0-97.7 0-146.5 0-47.5 0-95.1 0-142.6 0-29.1 0-58.2 0-87.2 0-2.3 0-4.6 0-7 0-1.6 0-3.3 0-4.9-.1-.9-.1-1.8-.1-2.8-.2-4.6-.4 3.5.7.5.1-2-.4-4-.8-6-1.3-2.2-.6-4.3-1.3-6.4-2-2.5-.8-.3.7 1.1.5-.7.1-3-1.4-3.6-1.7-1.5-.8-10-4.5-10.1-6.2.1.9 3.2 2.8.4.3-.8-.7-1.7-1.4-2.5-2.2-1.6-1.5-3.1-3-4.6-4.7-.7-.8-1.4-1.7-2.1-2.5-2-2 2.7 4 .3.4-1.1-1.7-2.2-3.3-3.2-5s-1.9-3.5-2.8-5.2c-.1-.2-1.1-2-1.1-2.4 1.1 2.7 1.3 3.1.5 1.1-.2-.6-.5-1.3-.7-1.9-.6-1.9-1.2-3.9-1.7-5.8-.2-.9-.4-1.8-.6-2.7-.1-.4-.2-.9-.3-1.3-.4-2.2-.3-1.8.1 1.2-1.1-1.1-.5-6.9-.5-8.4 0-.5 0-1 0-1.5 0-25 0-50 0-75 0-47.1 0-94.2 0-141.2 0-48 0-96.1 0-144.1 0-27.9 0-55.8 0-83.7 0-2 0-4 0-6 .1-2.1.5-4.2.5-6.2.1 4.3-.4 2.7-.1 1.2.3-1.3.5-2.7.8-4 .4-1.7.9-3.5 1.5-5.2.3-1.1.8-2.1 1.1-3.2.5-1.4.3-.8-.8 1.7.4-.8.7-1.6 1.1-2.4 1.7-3.6 3.8-6.9 6-10.2 2.1-3.2-.8.9-.8.9 0-.5 1.7-2.1 2.1-2.5 1.6-1.8 3.3-3.5 5-5.2.6-.6 1.3-1.2 2-1.7.4-.4 3.8-2.6 1-.9-2.6 1.6 2.5-1.7 3.4-2.2 1.9-1.2 3.8-2.3 5.7-3.2.8-.4 1.6-.8 2.4-1.1 4.1-2-4.2 1.4.1 0 3.9-1.3 7.7-2.3 11.7-3.2 4.6-1-4.6.3.1 0 .9-.1 1.8-.2 2.8-.2 1.4-.1 2.8-.1 4.2-.1h4.3 79.2 139.6 148.8 105.4 20.2c2.1 0 4.1.1 6.2.2.1 0 2.5 0 2.8.3-1.4-1.3-3.9-.6-.6 0 2 .4 4 .8 5.9 1.4.6.2 6.2 1.5 6.4 2.1 0 0-4.6-2.2-1.1-.5 1.2.6 2.4 1.1 3.6 1.8 1.9 1 3.8 2.1 5.7 3.3.7.5 1.4 1 2.2 1.5 3.6 2.4-2.4-2.3-.4-.3 2.9 3 6.2 5.5 8.9 8.7.3.3.6.7.8 1 1.3 1.7 1.1 1.4-.7-.9.2 0 1.6 2.2 1.5 2.1 1.1 1.6 2.2 3.3 3.1 5 1 1.7 1.8 3.5 2.7 5.3 2 4-1.1-3.2-.2-.5.4 1.3.9 2.5 1.3 3.8.6 1.9 1.1 3.9 1.6 5.9.2 1.1.4 2.2.6 3.3.6 2.9-.4-5.2-.1-.5.1 2.4.3 4.7.3 7.1v1.6 9.2 38.5 131.2 149.7 104.2c.4 4.6.4 9.6.4 14.6 0 10.5 9.2 20.5 20 20s20-8.8 20-20c0-20.4 0-40.9 0-61.3 0-46.2 0-92.3 0-138.5 0-49.9 0-99.7 0-149.6 0-31 0-62 0-93 0-17.8-2.6-35-11.4-50.9-15.8-28.7-46.9-46-79.4-46.1-22.5-.1-45 0-67.5 0-45.7 0-91.3 0-137 0-50.8 0-101.5 0-152.3 0-37.8 0-75.6 0-113.3 0-8.4 0-16.8 0-25.1 0-27.3 0-54 11.2-71.3 32.7-14.5 18-20.7 39-20.7 61.9v32 126.3 152.7 112.8c0 6.9-.1 13.8 0 20.6.3 38.2 23.9 71.1 59.3 84.8 12.6 4.9 25.9 5.5 39.2 5.5h34.9 125 153.5 128.1 37.2c10.8 0 21.2 0 31.9-2.5 40.2-9.3 68.5-46.7 68.9-87.5.1-10.5-9.3-20.5-20-20-10.9.6-19.9 8.9-20 20.1z"/><path id="XMLID_28_" d="m966 254.5c-31.8 13.3-63.6 26.5-95.4 39.8-50.3 20.9-100.5 41.9-150.8 62.8-11.5 4.8-23 9.6-34.4 14.3-8.3 3.5-14.7 9.7-14.7 19.3v82.3 131.7 30.1c0 9.7 6.4 15.8 14.7 19.3 31.8 13.3 63.6 26.5 95.4 39.8 50.3 20.9 100.5 41.9 150.8 62.8 11.5 4.8 23 9.6 34.4 14.3 12.3 5.1 25.3-7.6 25.3-19.3 0-15.9 0-31.7 0-47.6 0-38.1 0-76.1 0-114.2 0-46 0-92.1 0-138.1 0-39.8 0-79.6 0-119.4 0-19.3.5-38.6 0-57.9 0-.3 0-.5 0-.8 0-10.5-9.2-20.5-20-20s-20 8.8-20 20v47.6 114.2 138.1 119.4c0 19.2-.8 38.7 0 57.9v.8c8.4-6.4 16.9-12.9 25.3-19.3-31.8-13.3-63.6-26.5-95.4-39.8-50.3-20.9-100.5-41.9-150.8-62.8-11.5-4.8-23-9.6-34.4-14.3 4.9 6.4 9.8 12.9 14.7 19.3 0-27.4 0-54.9 0-82.3 0-43.9 0-87.8 0-131.7 0-10 0-20.1 0-30.1-4.9 6.4-9.8 12.9-14.7 19.3 31.8-13.3 63.6-26.5 95.4-39.8 50.3-20.9 100.5-41.9 150.8-62.8 11.5-4.8 23-9.6 34.4-14.3 5-2.1 9.1-4.3 12-9.2 2.5-4.3 3.6-10.6 2-15.4-3-9.3-14.2-18.3-24.6-14z"/></g></g></svg>