<?xml version="1.0" encoding="utf-8" ?>
<svg baseProfile="full" height="143" version="1.1" viewBox="0,0,148,143" width="148" xmlns="http://www.w3.org/2000/svg" xmlns:ev="http://www.w3.org/2001/xml-events" xmlns:xlink="http://www.w3.org/1999/xlink"><defs /><polygon fill="black" points="129.9375,132.8125 128.5625,131.6875 127.46875,130.53125 126.65625,129.34375 126.125,128.125 125.875,126.875 125.125,125.125 123.875,122.875 122.125,120.125 119.875,116.875 118.125,114.1875 116.875,112.0625 116.125,110.5 115.875,109.5 114.375,107.5 111.625,104.5 107.625,100.5 102.375,95.5 98.09375,91.28125 94.78125,87.84375 92.4375,85.1875 91.0625,83.3125 89.65625,81.78125 88.21875,80.59375 86.75,79.75 85.25,79.25 83.8125,78.875 82.4375,78.625 81.125,78.5 79.875,78.5 78.5625,78.625 77.1875,78.875 75.75,79.25 74.25,79.75 72.875,80.25 71.625,80.75 70.5,81.25 69.5,81.75 68.3125,82.625 66.9375,83.875 65.375,85.5 63.625,87.5 61.9375,89.1875 60.3125,90.5625 58.75,91.625 57.25,92.375 55.53125,92.71875 53.59375,92.65625 51.4375,92.1875 49.0625,91.3125 46.84375,90.15625 44.78125,88.71875 42.875,87.0 41.125,85.0 39.75,83.3125 38.75,81.9375 38.125,80.875 37.875,80.125 38.03125,79.28125 38.59375,78.34375 39.5625,77.3125 40.9375,76.1875 43.15625,74.90625 46.21875,73.46875 50.125,71.875 54.875,70.125 58.78125,68.40625 61.84375,66.71875 64.0625,65.0625 65.4375,63.4375 66.03125,61.78125 65.84375,60.09375 64.875,58.375 63.125,56.625 61.75,55.125 60.75,53.875 60.125,52.875 59.875,52.125 58.90625,50.59375 57.21875,48.28125 54.8125,45.1875 51.6875,41.3125 48.40625,37.84375 44.96875,34.78125 41.375,32.125 37.625,29.875 34.25,27.625 31.25,25.375 28.625,23.125 26.375,20.875 24.0,18.9375 21.5,17.3125 18.875,16.0 16.125,15.0 13.78125,13.96875 11.84375,12.90625 10.3125,11.8125 9.1875,10.6875 8.375,9.75 7.875,9.0 7.6875,8.4375 7.8125,8.0625 9.46875,7.84375 12.65625,7.78125 17.375,7.875 23.625,8.125 28.75,8.4375 32.75,8.8125 35.625,9.25 37.375,9.75 39.0625,10.125 40.6875,10.375 42.25,10.5 43.75,10.5 46.625,10.9375 50.875,11.8125 56.5,13.125 63.5,14.875 69.5,16.5625 74.5,18.1875 78.5,19.75 81.5,21.25 83.96875,22.59375 85.90625,23.78125 87.3125,24.8125 88.1875,25.6875 89.09375,26.78125 90.03125,28.09375 91.0,29.625 92.0,31.375 93.09375,33.03125 94.28125,34.59375 95.5625,36.0625 96.9375,37.4375 98.28125,38.46875 99.59375,39.15625 100.875,39.5 102.125,39.5 104.0,39.125 106.5,38.375 109.625,37.25 113.375,35.75 116.75,34.6875 119.75,34.0625 122.375,33.875 124.625,34.125 126.71875,34.53125 128.65625,35.09375 130.4375,35.8125 132.0625,36.6875 133.34375,37.59375 134.28125,38.53125 134.875,39.5 135.125,40.5 135.5,41.4375 136.0,42.3125 136.625,43.125 137.375,43.875 138.0,44.625 138.5,45.375 138.875,46.125 139.125,46.875 138.96875,47.40625 138.40625,47.71875 137.4375,47.8125 136.0625,47.6875 134.78125,47.71875 133.59375,47.90625 132.5,48.25 131.5,48.75 130.15625,49.90625 128.46875,51.71875 126.4375,54.1875 124.0625,57.3125 122.5625,60.0 121.9375,62.25 122.1875,64.0625 123.3125,65.4375 124.59375,66.71875 126.03125,67.90625 127.625,69.0 129.375,70.0 130.90625,70.96875 132.21875,71.90625 133.3125,72.8125 134.1875,73.6875 134.96875,74.71875 135.65625,75.90625 136.25,77.25 136.75,78.75 137.1875,81.9375 137.5625,86.8125 137.875,93.375 138.125,101.625 138.125,108.6875 137.875,114.5625 137.375,119.25 136.625,122.75 135.84375,125.78125 135.03125,128.34375 134.1875,130.4375 133.3125,132.0625 132.65625,133.28125 132.21875,134.09375 132.0,134.5 132.0,134.5 131.65625,134.21875 130.96875,133.65625" stroke="none" /></svg>