<?xml version="1.0" encoding="utf-8" ?>
<svg baseProfile="full" height="151" version="1.1" viewBox="0,0,169,151" width="169" xmlns="http://www.w3.org/2000/svg" xmlns:ev="http://www.w3.org/2001/xml-events" xmlns:xlink="http://www.w3.org/1999/xlink"><defs /><polygon fill="black" points="38.5,141.75 37.5,141.25 36.0625,140.75 34.1875,140.25 31.875,139.75 29.125,139.25 26.96875,138.78125 25.40625,138.34375 24.4375,137.9375 24.0625,137.5625 23.78125,137.09375 23.59375,136.53125 23.5,135.875 23.5,135.125 23.3125,134.375 22.9375,133.625 22.375,132.875 21.625,132.125 20.75,131.0 19.75,129.5 18.625,127.625 17.375,125.375 17.96875,122.96875 20.40625,120.40625 24.6875,117.6875 30.8125,114.8125 35.75,112.3125 39.5,110.1875 42.0625,108.4375 43.4375,107.0625 44.71875,105.46875 45.90625,103.65625 47.0,101.625 48.0,99.375 48.625,97.5 48.875,96.0 48.75,94.875 48.25,94.125 47.8125,93.125 47.4375,91.875 47.125,90.375 46.875,88.625 46.5,86.9375 46.0,85.3125 45.375,83.75 44.625,82.25 43.875,80.4375 43.125,78.3125 42.375,75.875 41.625,73.125 41.0625,70.4375 40.6875,67.8125 40.5,65.25 40.5,62.75 40.1875,60.5625 39.5625,58.6875 38.625,57.125 37.375,55.875 36.375,54.6875 35.625,53.5625 35.125,52.5 34.875,51.5 33.9375,49.75 32.3125,47.25 30.0,44.0 27.0,40.0 24.75,36.875 23.25,34.625 22.5,33.25 22.5,32.75 22.1875,31.9375 21.5625,30.8125 20.625,29.375 19.375,27.625 18.5,26.1875 18.0,25.0625 17.875,24.25 18.125,23.75 17.6875,22.75 16.5625,21.25 14.75,19.25 12.25,16.75 10.4375,14.6875 9.3125,13.0625 8.875,11.875 9.125,11.125 9.21875,10.40625 9.15625,9.71875 8.9375,9.0625 8.5625,8.4375 8.78125,8.03125 9.59375,7.84375 11.0,7.875 13.0,8.125 15.25,8.6875 17.75,9.5625 20.5,10.75 23.5,12.25 27.5,14.5625 32.5,17.6875 38.5,21.625 45.5,26.375 51.25,30.1875 55.75,33.0625 59.0,35.0 61.0,36.0 62.96875,37.21875 64.90625,38.65625 66.8125,40.3125 68.6875,42.1875 70.21875,43.90625 71.40625,45.46875 72.25,46.875 72.75,48.125 73.25,49.8125 73.75,51.9375 74.25,54.5 74.75,57.5 75.46875,60.21875 76.40625,62.65625 77.5625,64.8125 78.9375,66.6875 80.28125,67.96875 81.59375,68.65625 82.875,68.75 84.125,68.25 85.375,67.5625 86.625,66.6875 87.875,65.625 89.125,64.375 90.625,63.25 92.375,62.25 94.375,61.375 96.625,60.625 99.6875,60.25 103.5625,60.25 108.25,60.625 113.75,61.375 117.90625,62.21875 120.71875,63.15625 122.1875,64.1875 122.3125,65.3125 122.3125,66.25 122.1875,67.0 121.9375,67.5625 121.5625,67.9375 120.96875,68.28125 120.15625,68.59375 119.125,68.875 117.875,69.125 116.46875,69.90625 114.90625,71.21875 113.1875,73.0625 111.3125,75.4375 110.0625,77.375 109.4375,78.875 109.4375,79.9375 110.0625,80.5625 110.78125,81.09375 111.59375,81.53125 112.5,81.875 113.5,82.125 115.0,82.375 117.0,82.625 119.5,82.875 122.5,83.125 125.1875,83.625 127.5625,84.375 129.625,85.375 131.375,86.625 133.40625,88.28125 135.71875,90.34375 138.3125,92.8125 141.1875,95.6875 144.28125,99.34375 147.59375,103.78125 151.125,109.0 154.875,115.0 157.65625,119.65625 159.46875,122.96875 160.3125,124.9375 160.1875,125.5625 159.78125,126.09375 159.09375,126.53125 158.125,126.875 156.875,127.125 155.4375,126.875 153.8125,126.125 152.0,124.875 150.0,123.125 148.3125,121.9375 146.9375,121.3125 145.875,121.25 145.125,121.75 144.25,121.9375 143.25,121.8125 142.125,121.375 140.875,120.625 139.75,120.125 138.75,119.875 137.875,119.875 137.125,120.125 136.3125,120.0625 135.4375,119.6875 134.5,119.0 133.5,118.0 132.6875,117.3125 132.0625,116.9375 131.625,116.875 131.375,117.125 131.0625,117.3125 130.6875,117.4375 130.25,117.5 129.75,117.5 129.25,117.375 128.75,117.125 128.25,116.75 127.75,116.25 127.0625,115.9375 126.1875,115.8125 125.125,115.875 123.875,116.125 122.8125,116.1875 121.9375,116.0625 121.25,115.75 120.75,115.25 120.25,114.9375 119.75,114.8125 119.25,114.875 118.75,115.125 118.0625,115.1875 117.1875,115.0625 116.125,114.75 114.875,114.25 113.6875,113.875 112.5625,113.625 111.5,113.5 110.5,113.5 109.625,113.375 108.875,113.125 108.25,112.75 107.75,112.25 107.0625,111.9375 106.1875,111.8125 105.125,111.875 103.875,112.125 102.6875,112.25 101.5625,112.25 100.5,112.125 99.5,111.875 98.625,111.5625 97.875,111.1875 97.25,110.75 96.75,110.25 95.875,109.875 94.625,109.625 93.0,109.5 91.0,109.5 88.0625,109.8125 84.1875,110.4375 79.375,111.375 73.625,112.625 68.6875,113.9375 64.5625,115.3125 61.25,116.75 58.75,118.25 56.71875,119.53125 55.15625,120.59375 54.0625,121.4375 53.4375,122.0625 52.46875,123.53125 51.15625,125.84375 49.5,129.0 47.5,133.0 45.71875,136.21875 44.15625,138.65625 42.8125,140.3125 41.6875,141.1875 40.84375,141.84375 40.28125,142.28125 40.0,142.5 40.0,142.5 39.75,142.375 39.25,142.125" stroke="none" /></svg>