<?xml version="1.0" encoding="utf-8" ?>
<svg baseProfile="full" height="164" version="1.1" viewBox="0,0,136,164" width="136" xmlns="http://www.w3.org/2000/svg" xmlns:ev="http://www.w3.org/2001/xml-events" xmlns:xlink="http://www.w3.org/1999/xlink"><defs /><polygon fill="black" points="119.3125,152.6875 118.1875,150.8125 117.09375,149.15625 116.03125,147.71875 115.0,146.5 114.0,145.5 112.5,143.4375 110.5,140.3125 108.0,136.125 105.0,130.875 102.1875,126.375 99.5625,122.625 97.125,119.625 94.875,117.375 93.0,115.375 91.5,113.625 90.375,112.125 89.625,110.875 88.5,109.4375 87.0,107.8125 85.125,106.0 82.875,104.0 80.84375,101.96875 79.03125,99.90625 77.4375,97.8125 76.0625,95.6875 74.53125,94.03125 72.84375,92.84375 71.0,92.125 69.0,91.875 67.4375,91.75 66.3125,91.75 65.625,91.875 65.375,92.125 64.375,92.375 62.625,92.625 60.125,92.875 56.875,93.125 53.1875,94.0 49.0625,95.5 44.5,97.625 39.5,100.375 35.25,102.875 31.75,105.125 29.0,107.125 27.0,108.875 25.3125,110.1875 23.9375,111.0625 22.875,111.5 22.125,111.5 21.1875,111.3125 20.0625,110.9375 18.75,110.375 17.25,109.625 15.65625,108.71875 13.96875,107.65625 12.1875,106.4375 10.3125,105.0625 8.90625,103.78125 7.96875,102.59375 7.5,101.5 7.5,100.5 7.65625,99.59375 7.96875,98.78125 8.4375,98.0625 9.0625,97.4375 10.78125,96.53125 13.59375,95.34375 17.5,93.875 22.5,92.125 27.125,90.375 31.375,88.625 35.25,86.875 38.75,85.125 41.90625,83.34375 44.71875,81.53125 47.1875,79.6875 49.3125,77.8125 51.03125,76.15625 52.34375,74.71875 53.25,73.5 53.75,72.5 54.125,71.5625 54.375,70.6875 54.5,69.875 54.5,69.125 54.375,68.375 54.125,67.625 53.75,66.875 53.25,66.125 52.75,64.9375 52.25,63.3125 51.75,61.25 51.25,58.75 50.9375,56.8125 50.8125,55.4375 50.875,54.625 51.125,54.375 51.3125,53.3125 51.4375,51.4375 51.5,48.75 51.5,45.25 51.9375,41.3125 52.8125,36.9375 54.125,32.125 55.875,26.875 57.78125,22.21875 59.84375,18.15625 62.0625,14.6875 64.4375,11.8125 66.6875,10.625 68.8125,11.125 70.8125,13.3125 72.6875,17.1875 74.28125,20.90625 75.59375,24.46875 76.625,27.875 77.375,31.125 78.25,34.0 79.25,36.5 80.375,38.625 81.625,40.375 82.75,42.125 83.75,43.875 84.625,45.625 85.375,47.375 85.9375,48.875 86.3125,50.125 86.5,51.125 86.5,51.875 86.71875,52.71875 87.15625,53.65625 87.8125,54.6875 88.6875,55.8125 89.53125,56.71875 90.34375,57.40625 91.125,57.875 91.875,58.125 93.125,58.0625 94.875,57.6875 97.125,57.0 99.875,56.0 102.5625,55.3125 105.1875,54.9375 107.75,54.875 110.25,55.125 112.96875,55.96875 115.90625,57.40625 119.0625,59.4375 122.4375,62.0625 124.3125,64.3125 124.6875,66.1875 123.5625,67.6875 120.9375,68.8125 118.4375,70.1875 116.0625,71.8125 113.8125,73.6875 111.6875,75.8125 110.78125,78.15625 111.09375,80.71875 112.625,83.5 115.375,86.5 117.5625,89.125 119.1875,91.375 120.25,93.25 120.75,94.75 121.125,96.9375 121.375,99.8125 121.5,103.375 121.5,107.625 121.5625,110.875 121.6875,113.125 121.875,114.375 122.125,114.625 122.3125,115.5 122.4375,117.0 122.5,119.125 122.5,121.875 122.5625,124.0 122.6875,125.5 122.875,126.375 123.125,126.625 123.3125,127.5625 123.4375,129.1875 123.5,131.5 123.5,134.5 123.4375,136.8125 123.3125,138.4375 123.125,139.375 122.875,139.625 122.6875,140.5625 122.5625,142.1875 122.5,144.5 122.5,147.5 122.40625,149.96875 122.21875,151.90625 121.9375,153.3125 121.5625,154.1875 121.28125,154.84375 121.09375,155.28125 121.0,155.5 121.0,155.5 120.71875,155.03125 120.15625,154.09375" stroke="none" /></svg>