<?xml version="1.0" encoding="utf-8" ?>
<svg baseProfile="full" height="109" version="1.1" viewBox="0,0,141,109" width="141" xmlns="http://www.w3.org/2000/svg" xmlns:ev="http://www.w3.org/2001/xml-events" xmlns:xlink="http://www.w3.org/1999/xlink"><defs /><polygon fill="black" points="131.25,100.5 130.75,100.5 129.125,99.8125 126.375,98.4375 122.5,96.375 117.5,93.625 113.0,91.375 109.0,89.625 105.5,88.375 102.5,87.625 99.9375,87.0625 97.8125,86.6875 96.125,86.5 94.875,86.5 92.9375,86.1875 90.3125,85.5625 87.0,84.625 83.0,83.375 78.5,82.5 73.5,82.0 68.0,81.875 62.0,82.125 57.0625,82.5 53.1875,83.0 50.375,83.625 48.625,84.375 46.4375,85.6875 43.8125,87.5625 40.75,90.0 37.25,93.0 34.125,95.1875 31.375,96.5625 29.0,97.125 27.0,96.875 24.84375,96.03125 22.53125,94.59375 20.0625,92.5625 17.4375,89.9375 15.40625,87.71875 13.96875,85.90625 13.125,84.5 12.875,83.5 13.03125,82.53125 13.59375,81.59375 14.5625,80.6875 15.9375,79.8125 17.71875,79.09375 19.90625,78.53125 22.5,78.125 25.5,77.875 28.1875,77.5 30.5625,77.0 32.625,76.375 34.375,75.625 36.15625,74.65625 37.96875,73.46875 39.8125,72.0625 41.6875,70.4375 43.15625,69.03125 44.21875,67.84375 44.875,66.875 45.125,66.125 44.6875,64.6875 43.5625,62.5625 41.75,59.75 39.25,56.25 37.125,53.0 35.375,50.0 34.0,47.25 33.0,44.75 30.875,41.3125 27.625,36.9375 23.25,31.625 17.75,25.375 13.5,20.1875 10.5,16.0625 8.75,13.0 8.25,11.0 7.96875,9.46875 7.90625,8.40625 8.0625,7.8125 8.4375,7.6875 10.15625,8.21875 13.21875,9.40625 17.625,11.25 23.375,13.75 28.0,15.6875 31.5,17.0625 33.875,17.875 35.125,18.125 37.0,18.8125 39.5,19.9375 42.625,21.5 46.375,23.5 49.3125,25.0 51.4375,26.0 52.75,26.5 53.25,26.5 53.75,26.625 54.25,26.875 54.75,27.25 55.25,27.75 55.875,28.1875 56.625,28.5625 57.5,28.875 58.5,29.125 59.59375,29.65625 60.78125,30.46875 62.0625,31.5625 63.4375,32.9375 64.78125,34.65625 66.09375,36.71875 67.375,39.125 68.625,41.875 69.90625,44.28125 71.21875,46.34375 72.5625,48.0625 73.9375,49.4375 75.96875,50.15625 78.65625,50.21875 82.0,49.625 86.0,48.375 89.75,47.4375 93.25,46.8125 96.5,46.5 99.5,46.5 101.78125,46.96875 103.34375,47.90625 104.1875,49.3125 104.3125,51.1875 104.25,52.625 104.0,53.625 103.5625,54.1875 102.9375,54.3125 102.1875,54.75 101.3125,55.5 100.3125,56.5625 99.1875,57.9375 98.5625,59.1875 98.4375,60.3125 98.8125,61.3125 99.6875,62.1875 100.90625,62.90625 102.46875,63.46875 104.375,63.875 106.625,64.125 109.03125,64.96875 111.59375,66.40625 114.3125,68.4375 117.1875,71.0625 119.84375,73.78125 122.28125,76.59375 124.5,79.5 126.5,82.5 128.1875,85.3125 129.5625,87.9375 130.625,90.375 131.375,92.625 131.90625,94.59375 132.21875,96.28125 132.3125,97.6875 132.1875,98.8125 132.09375,99.65625 132.03125,100.21875 132.0,100.5 132.0,100.5 131.875,100.5 131.625,100.5" stroke="none" /></svg>