<?xml version="1.0" encoding="utf-8" ?>
<svg baseProfile="full" height="169" version="1.1" viewBox="0,0,129,169" width="129" xmlns="http://www.w3.org/2000/svg" xmlns:ev="http://www.w3.org/2001/xml-events" xmlns:xlink="http://www.w3.org/1999/xlink"><defs /><polygon fill="black" points="106.1875,158.0625 104.3125,156.4375 102.28125,154.46875 100.09375,152.15625 97.75,149.5 95.25,146.5 93.375,144.125 92.125,142.375 91.5,141.25 91.5,140.75 91.3125,140.125 90.9375,139.375 90.375,138.5 89.625,137.5 87.5625,135.3125 84.1875,131.9375 79.5,127.375 73.5,121.625 68.8125,117.0625 65.4375,113.6875 63.375,111.5 62.625,110.5 62.0625,109.625 61.6875,108.875 61.5,108.25 61.5,107.75 61.28125,107.15625 60.84375,106.46875 60.1875,105.6875 59.3125,104.8125 58.15625,104.15625 56.71875,103.71875 55.0,103.5 53.0,103.5 51.0,103.75 49.0,104.25 47.0,105.0 45.0,106.0 42.75,107.75 40.25,110.25 37.5,113.5 34.5,117.5 31.9375,120.5 29.8125,122.5 28.125,123.5 26.875,123.5 25.4375,123.25 23.8125,122.75 22.0,122.0 20.0,121.0 18.28125,120.03125 16.84375,119.09375 15.6875,118.1875 14.8125,117.3125 14.15625,116.53125 13.71875,115.84375 13.5,115.25 13.5,114.75 13.1875,113.9375 12.5625,112.8125 11.625,111.375 10.375,109.625 9.375,108.125 8.625,106.875 8.125,105.875 7.875,105.125 7.75,104.4375 7.75,103.8125 7.875,103.25 8.125,102.75 9.84375,101.90625 13.03125,100.71875 17.6875,99.1875 23.8125,97.3125 28.875,95.5 32.875,93.75 35.8125,92.0625 37.6875,90.4375 39.28125,88.84375 40.59375,87.28125 41.625,85.75 42.375,84.25 42.8125,83.0 42.9375,82.0 42.75,81.25 42.25,80.75 41.8125,79.9375 41.4375,78.8125 41.125,77.375 40.875,75.625 40.3125,73.625 39.4375,71.375 38.25,68.875 36.75,66.125 35.5625,63.3125 34.6875,60.4375 34.125,57.5 33.875,54.5 33.375,51.9375 32.625,49.8125 31.625,48.125 30.375,46.875 29.1875,45.5 28.0625,44.0 27.0,42.375 26.0,40.625 25.3125,39.1875 24.9375,38.0625 24.875,37.25 25.125,36.75 25.0,36.0625 24.5,35.1875 23.625,34.125 22.375,32.875 21.4375,31.8125 20.8125,30.9375 20.5,30.25 20.5,29.75 20.375,29.25 20.125,28.75 19.75,28.25 19.25,27.75 18.8125,27.0625 18.4375,26.1875 18.125,25.125 17.875,23.875 17.25,22.4375 16.25,20.8125 14.875,19.0 13.125,17.0 11.75,15.375 10.75,14.125 10.125,13.25 9.875,12.75 9.71875,12.09375 9.65625,11.28125 9.6875,10.3125 9.8125,9.1875 10.34375,8.46875 11.28125,8.15625 12.625,8.25 14.375,8.75 16.6875,9.8125 19.5625,11.4375 23.0,13.625 27.0,16.375 30.5,18.6875 33.5,20.5625 36.0,22.0 38.0,23.0 40.4375,24.4375 43.3125,26.3125 46.625,28.625 50.375,31.375 54.0,33.875 57.5,36.125 60.875,38.125 64.125,39.875 66.84375,41.46875 69.03125,42.90625 70.6875,44.1875 71.8125,45.3125 72.78125,46.40625 73.59375,47.46875 74.25,48.5 74.75,49.5 75.3125,51.125 75.9375,53.375 76.625,56.25 77.375,59.75 78.15625,62.65625 78.96875,64.96875 79.8125,66.6875 80.6875,67.8125 81.46875,68.71875 82.15625,69.40625 82.75,69.875 83.25,70.125 84.125,70.3125 85.375,70.4375 87.0,70.5 89.0,70.5 90.5625,70.4375 91.6875,70.3125 92.375,70.125 92.625,69.875 93.8125,69.75 95.9375,69.75 99.0,69.875 103.0,70.125 106.5,70.5625 109.5,71.1875 112.0,72.0 114.0,73.0 115.71875,73.96875 117.15625,74.90625 118.3125,75.8125 119.1875,76.6875 119.5,77.4375 119.25,78.0625 118.4375,78.5625 117.0625,78.9375 115.59375,79.46875 114.03125,80.15625 112.375,81.0 110.625,82.0 108.59375,83.34375 106.28125,85.03125 103.6875,87.0625 100.8125,89.4375 99.65625,92.34375 100.21875,95.78125 102.5,99.75 106.5,104.25 109.5625,110.25 111.6875,117.75 112.875,126.75 113.125,137.25 113.1875,145.4375 113.0625,151.3125 112.75,154.875 112.25,156.125 111.71875,157.21875 111.15625,158.15625 110.5625,158.9375 109.9375,159.5625 109.46875,160.03125 109.15625,160.34375 109.0,160.5 109.0,160.5 108.53125,160.09375 107.59375,159.28125" stroke="none" /></svg>