<?xml version="1.0" encoding="utf-8" ?>
<svg baseProfile="full" height="167" version="1.1" viewBox="0,0,147,167" width="147" xmlns="http://www.w3.org/2000/svg" xmlns:ev="http://www.w3.org/2001/xml-events" xmlns:xlink="http://www.w3.org/1999/xlink"><defs /><polygon fill="black" points="135.5,157.0 134.5,156.0 133.6875,155.3125 133.0625,154.9375 132.625,154.875 132.375,155.125 132.0625,155.25 131.6875,155.25 131.25,155.125 130.75,154.875 128.6875,153.0 125.0625,149.5 119.875,144.375 113.125,137.625 107.9375,132.5625 104.3125,129.1875 102.25,127.5 101.75,127.5 100.5625,126.8125 98.6875,125.4375 96.125,123.375 92.875,120.625 90.03125,118.15625 87.59375,115.96875 85.5625,114.0625 83.9375,112.4375 82.71875,111.09375 81.90625,110.03125 81.5,109.25 81.5,108.75 81.34375,108.21875 81.03125,107.65625 80.5625,107.0625 79.9375,106.4375 78.15625,106.03125 75.21875,105.84375 71.125,105.875 65.875,106.125 60.6875,107.625 55.5625,110.375 50.5,114.375 45.5,119.625 41.0625,123.375 37.1875,125.625 33.875,126.375 31.125,125.625 28.78125,124.84375 26.84375,124.03125 25.3125,123.1875 24.1875,122.3125 23.28125,121.46875 22.59375,120.65625 22.125,119.875 21.875,119.125 21.375,118.25 20.625,117.25 19.625,116.125 18.375,114.875 17.375,113.5625 16.625,112.1875 16.125,110.75 15.875,109.25 16.09375,107.90625 16.78125,106.71875 17.9375,105.6875 19.5625,104.8125 22.03125,103.78125 25.34375,102.59375 29.5,101.25 34.5,99.75 38.6875,98.3125 42.0625,96.9375 44.625,95.625 46.375,94.375 48.03125,92.96875 49.59375,91.40625 51.0625,89.6875 52.4375,87.8125 52.65625,85.53125 51.71875,82.84375 49.625,79.75 46.375,76.25 43.5,72.875 41.0,69.625 38.875,66.5 37.125,63.5 35.75,60.9375 34.75,58.8125 34.125,57.125 33.875,55.875 33.3125,54.5 32.4375,53.0 31.25,51.375 29.75,49.625 28.5625,48.0625 27.6875,46.6875 27.125,45.5 26.875,44.5 26.3125,43.375 25.4375,42.125 24.25,40.75 22.75,39.25 21.625,37.9375 20.875,36.8125 20.5,35.875 20.5,35.125 20.25,34.3125 19.75,33.4375 19.0,32.5 18.0,31.5 17.125,30.5 16.375,29.5 15.75,28.5 15.25,27.5 14.875,26.5625 14.625,25.6875 14.5,24.875 14.5,24.125 14.125,23.125 13.375,21.875 12.25,20.375 10.75,18.625 9.5625,17.0625 8.6875,15.6875 8.125,14.5 7.875,13.5 7.8125,12.625 7.9375,11.875 8.25,11.25 8.75,10.75 9.09375,10.21875 9.28125,9.65625 9.3125,9.0625 9.1875,8.4375 9.46875,8.21875 10.15625,8.40625 11.25,9.0 12.75,10.0 15.6875,11.625 20.0625,13.875 25.875,16.75 33.125,20.25 39.0625,23.25 43.6875,25.75 47.0,27.75 49.0,29.25 51.4375,30.875 54.3125,32.625 57.625,34.5 61.375,36.5 64.59375,38.34375 67.28125,40.03125 69.4375,41.5625 71.0625,42.9375 72.84375,44.96875 74.78125,47.65625 76.875,51.0 79.125,55.0 81.28125,58.40625 83.34375,61.21875 85.3125,63.4375 87.1875,65.0625 88.90625,66.28125 90.46875,67.09375 91.875,67.5 93.125,67.5 94.375,67.375 95.625,67.125 96.875,66.75 98.125,66.25 99.9375,65.875 102.3125,65.625 105.25,65.5 108.75,65.5 112.0625,65.75 115.1875,66.25 118.125,67.0 120.875,68.0 123.21875,69.03125 125.15625,70.09375 126.6875,71.1875 127.8125,72.3125 128.6875,73.3125 129.3125,74.1875 129.6875,74.9375 129.8125,75.5625 129.28125,76.09375 128.09375,76.53125 126.25,76.875 123.75,77.125 121.5,77.5625 119.5,78.1875 117.75,79.0 116.25,80.0 114.84375,81.09375 113.53125,82.28125 112.3125,83.5625 111.1875,84.9375 110.625,86.25 110.625,87.5 111.1875,88.6875 112.3125,89.8125 113.46875,90.78125 114.65625,91.59375 115.875,92.25 117.125,92.75 118.28125,93.34375 119.34375,94.03125 120.3125,94.8125 121.1875,95.6875 122.15625,96.90625 123.21875,98.46875 124.375,100.375 125.625,102.625 126.75,105.25 127.75,108.25 128.625,111.625 129.375,115.375 130.375,119.5625 131.625,124.1875 133.125,129.25 134.875,134.75 136.25,139.625 137.25,143.875 137.875,147.5 138.125,150.5 138.21875,152.96875 138.15625,154.90625 137.9375,156.3125 137.5625,157.1875 137.28125,157.84375 137.09375,158.28125 137.0,158.5 137.0,158.5 136.75,158.25 136.25,157.75" stroke="none" /></svg>