<?xml version="1.0" encoding="utf-8" ?>
<svg baseProfile="full" height="141" version="1.1" viewBox="0,0,167,141" width="167" xmlns="http://www.w3.org/2000/svg" xmlns:ev="http://www.w3.org/2001/xml-events" xmlns:xlink="http://www.w3.org/1999/xlink"><defs /><polygon fill="black" points="155.75,131.375 154.25,130.625 153.0,130.125 152.0,129.875 151.25,129.875 150.75,130.125 150.125,130.125 149.375,129.875 148.5,129.375 147.5,128.625 146.6875,128.125 146.0625,127.875 145.625,127.875 145.375,128.125 144.5625,127.8125 143.1875,126.9375 141.25,125.5 138.75,123.5 135.3125,121.375 130.9375,119.125 125.625,116.75 119.375,114.25 113.3125,111.1875 107.4375,107.5625 101.75,103.375 96.25,98.625 91.0625,95.5625 86.1875,94.1875 81.625,94.5 77.375,96.5 73.59375,98.59375 70.28125,100.78125 67.4375,103.0625 65.0625,105.4375 62.96875,107.90625 61.15625,110.46875 59.625,113.125 58.375,115.875 57.21875,118.15625 56.15625,119.96875 55.1875,121.3125 54.3125,122.1875 53.21875,122.90625 51.90625,123.46875 50.375,123.875 48.625,124.125 47.0,124.0 45.5,123.5 44.125,122.625 42.875,121.375 41.75,120.375 40.75,119.625 39.875,119.125 39.125,118.875 38.28125,118.21875 37.34375,117.15625 36.3125,115.6875 35.1875,113.8125 35.0625,111.875 35.9375,109.875 37.8125,107.8125 40.6875,105.6875 43.5625,103.375 46.4375,100.875 49.3125,98.1875 52.1875,95.3125 54.65625,92.46875 56.71875,89.65625 58.375,86.875 59.625,84.125 60.5625,81.875 61.1875,80.125 61.5,78.875 61.5,78.125 59.9375,76.0 56.8125,72.5 52.125,67.625 45.875,61.375 40.75,56.0 36.75,51.5 33.875,47.875 32.125,45.125 29.875,42.0625 27.125,38.6875 23.875,35.0 20.125,31.0 16.875,27.25 14.125,23.75 11.875,20.5 10.125,17.5 8.8125,14.9375 7.9375,12.8125 7.5,11.125 7.5,9.875 7.65625,8.90625 7.96875,8.21875 8.4375,7.8125 9.0625,7.6875 9.71875,7.71875 10.40625,7.90625 11.125,8.25 11.875,8.75 13.125,9.3125 14.875,9.9375 17.125,10.625 19.875,11.375 22.375,12.1875 24.625,13.0625 26.625,14.0 28.375,15.0 30.5625,16.0625 33.1875,17.1875 36.25,18.375 39.75,19.625 42.625,20.5 44.875,21.0 46.5,21.125 47.5,20.875 48.9375,21.0 50.8125,21.5 53.125,22.375 55.875,23.625 58.0625,24.6875 59.6875,25.5625 60.75,26.25 61.25,26.75 61.75,27.0625 62.25,27.1875 62.75,27.125 63.25,26.875 64.0,27.0 65.0,27.5 66.25,28.375 67.75,29.625 69.1875,30.625 70.5625,31.375 71.875,31.875 73.125,32.125 74.9375,33.1875 77.3125,35.0625 80.25,37.75 83.75,41.25 86.875,43.375 89.625,44.125 92.0,43.5 94.0,41.5 95.875,39.8125 97.625,38.4375 99.25,37.375 100.75,36.625 102.375,36.0625 104.125,35.6875 106.0,35.5 108.0,35.5 109.5625,35.4375 110.6875,35.3125 111.375,35.125 111.625,34.875 111.84375,35.34375 112.03125,36.53125 112.1875,38.4375 112.3125,41.0625 112.34375,43.09375 112.28125,44.53125 112.125,45.375 111.875,45.625 111.6875,46.25 111.5625,47.25 111.5,48.625 111.5,50.375 111.4375,51.75 111.3125,52.75 111.125,53.375 110.875,53.625 110.75,53.875 110.75,54.125 110.875,54.375 111.125,54.625 111.1875,55.0625 111.0625,55.6875 110.75,56.5 110.25,57.5 109.875,58.4375 109.625,59.3125 109.5,60.125 109.5,60.875 109.90625,61.96875 110.71875,63.40625 111.9375,65.1875 113.5625,67.3125 115.53125,69.46875 117.84375,71.65625 120.5,73.875 123.5,76.125 126.40625,78.46875 129.21875,80.90625 131.9375,83.4375 134.5625,86.0625 136.96875,89.03125 139.15625,92.34375 141.125,96.0 142.875,100.0 144.5625,103.5625 146.1875,106.6875 147.75,109.375 149.25,111.625 150.5625,113.875 151.6875,116.125 152.625,118.375 153.375,120.625 154.1875,122.75 155.0625,124.75 156.0,126.625 157.0,128.375 157.71875,129.78125 158.15625,130.84375 158.3125,131.5625 158.1875,131.9375 158.09375,132.21875 158.03125,132.40625 158.0,132.5 158.0,132.5 157.625,132.3125 156.875,131.9375" stroke="none" /></svg>