<?xml version="1.0" encoding="utf-8" ?>
<svg baseProfile="full" height="157" version="1.1" viewBox="0,0,131,157" width="131" xmlns="http://www.w3.org/2000/svg" xmlns:ev="http://www.w3.org/2001/xml-events" xmlns:xlink="http://www.w3.org/1999/xlink"><defs /><polygon fill="black" points="121.25,147.75 120.75,147.25 120.0625,146.8125 119.1875,146.4375 118.125,146.125 116.875,145.875 115.4375,145.1875 113.8125,144.0625 112.0,142.5 110.0,140.5 107.75,138.4375 105.25,136.3125 102.5,134.125 99.5,131.875 97.0,130.125 95.0,128.875 93.5,128.125 92.5,127.875 91.5,127.4375 90.5,126.8125 89.5,126.0 88.5,125.0 87.0625,123.875 85.1875,122.625 82.875,121.25 80.125,119.75 77.75,118.3125 75.75,116.9375 74.125,115.625 72.875,114.375 70.8125,113.0625 67.9375,111.6875 64.25,110.25 59.75,108.75 55.6875,107.625 52.0625,106.875 48.875,106.5 46.125,106.5 43.3125,106.875 40.4375,107.625 37.5,108.75 34.5,110.25 31.75,111.375 29.25,112.125 27.0,112.5 25.0,112.5 22.875,112.0 20.625,111.0 18.25,109.5 15.75,107.5 13.65625,105.71875 11.96875,104.15625 10.6875,102.8125 9.8125,101.6875 9.09375,100.40625 8.53125,98.96875 8.125,97.375 7.875,95.625 7.84375,94.21875 8.03125,93.15625 8.4375,92.4375 9.0625,92.0625 9.78125,91.71875 10.59375,91.40625 11.5,91.125 12.5,90.875 14.6875,90.75 18.0625,90.75 22.625,90.875 28.375,91.125 32.9375,91.1875 36.3125,91.0625 38.5,90.75 39.5,90.25 40.53125,89.59375 41.59375,88.78125 42.6875,87.8125 43.8125,86.6875 44.46875,85.28125 44.65625,83.59375 44.375,81.625 43.625,79.375 42.5,76.9375 41.0,74.3125 39.125,71.5 36.875,68.5 35.25,65.625 34.25,62.875 33.875,60.25 34.125,57.75 34.0625,55.0625 33.6875,52.1875 33.0,49.125 32.0,45.875 31.25,43.0625 30.75,40.6875 30.5,38.75 30.5,37.25 30.4375,36.0625 30.3125,35.1875 30.125,34.625 29.875,34.375 29.75,34.125 29.75,33.875 29.875,33.625 30.125,33.375 30.1875,32.9375 30.0625,32.3125 29.75,31.5 29.25,30.5 28.875,29.3125 28.625,27.9375 28.5,26.375 28.5,24.625 28.4375,23.25 28.3125,22.25 28.125,21.625 27.875,21.375 27.8125,21.0 27.9375,20.5 28.25,19.875 28.75,19.125 29.0,18.4375 29.0,17.8125 28.75,17.25 28.25,16.75 27.96875,15.84375 27.90625,14.53125 28.0625,12.8125 28.4375,10.6875 29.03125,9.21875 29.84375,8.40625 30.875,8.25 32.125,8.75 33.28125,9.34375 34.34375,10.03125 35.3125,10.8125 36.1875,11.6875 37.53125,13.28125 39.34375,15.59375 41.625,18.625 44.375,22.375 47.1875,25.9375 50.0625,29.3125 53.0,32.5 56.0,35.5 58.6875,38.3125 61.0625,40.9375 63.125,43.375 64.875,45.625 66.5625,48.0 68.1875,50.5 69.75,53.125 71.25,55.875 72.5625,58.75 73.6875,61.75 74.625,64.875 75.375,68.125 76.21875,70.84375 77.15625,73.03125 78.1875,74.6875 79.3125,75.8125 81.28125,76.65625 84.09375,77.21875 87.75,77.5 92.25,77.5 96.15625,77.84375 99.46875,78.53125 102.1875,79.5625 104.3125,80.9375 105.625,82.0625 106.125,82.9375 105.8125,83.5625 104.6875,83.9375 103.3125,84.875 101.6875,86.375 99.8125,88.4375 97.6875,91.0625 96.65625,93.65625 96.71875,96.21875 97.875,98.75 100.125,101.25 102.25,103.875 104.25,106.625 106.125,109.5 107.875,112.5 109.5,115.125 111.0,117.375 112.375,119.25 113.625,120.75 115.0,122.9375 116.5,125.8125 118.125,129.375 119.875,133.625 121.15625,137.34375 121.96875,140.53125 122.3125,143.1875 122.1875,145.3125 122.09375,146.90625 122.03125,147.96875 122.0,148.5 122.0,148.5 121.875,148.375 121.625,148.125" stroke="none" /></svg>