<?xml version="1.0" encoding="utf-8" ?>
<svg baseProfile="full" height="146" version="1.1" viewBox="0,0,123,146" width="123" xmlns="http://www.w3.org/2000/svg" xmlns:ev="http://www.w3.org/2001/xml-events" xmlns:xlink="http://www.w3.org/1999/xlink"><defs /><polygon fill="black" points="108.125,137.5 106.875,137.5 105.5,137.375 104.0,137.125 102.375,136.75 100.625,136.25 98.3125,134.875 95.4375,132.625 92.0,129.5 88.0,125.5 84.875,122.5 82.625,120.5 81.25,119.5 80.75,119.5 79.75,118.875 78.25,117.625 76.25,115.75 73.75,113.25 71.3125,111.125 68.9375,109.375 66.625,108.0 64.375,107.0 62.5625,106.25 61.1875,105.75 60.25,105.5 59.75,105.5 59.21875,105.65625 58.65625,105.96875 58.0625,106.4375 57.4375,107.0625 56.96875,107.65625 56.65625,108.21875 56.5,108.75 56.5,109.25 56.65625,109.84375 56.96875,110.53125 57.4375,111.3125 58.0625,112.1875 58.03125,112.84375 57.34375,113.28125 56.0,113.5 54.0,113.5 52.4375,113.5625 51.3125,113.6875 50.625,113.875 50.375,114.125 49.5625,114.3125 48.1875,114.4375 46.25,114.5 43.75,114.5 41.75,114.375 40.25,114.125 39.25,113.75 38.75,113.25 38.125,112.8125 37.375,112.4375 36.5,112.125 35.5,111.875 34.125,111.75 32.375,111.75 30.25,111.875 27.75,112.125 25.75,112.1875 24.25,112.0625 23.25,111.75 22.75,111.25 22.09375,110.84375 21.28125,110.53125 20.3125,110.3125 19.1875,110.1875 18.625,110.0 18.625,109.75 19.1875,109.4375 20.3125,109.0625 21.78125,108.78125 23.59375,108.59375 25.75,108.5 28.25,108.5 30.46875,108.15625 32.40625,107.46875 34.0625,106.4375 35.4375,105.0625 36.59375,103.71875 37.53125,102.40625 38.25,101.125 38.75,99.875 38.3125,98.1875 36.9375,96.0625 34.625,93.5 31.375,90.5 28.5,87.4375 26.0,84.3125 23.875,81.125 22.125,77.875 20.6875,74.9375 19.5625,72.3125 18.75,70.0 18.25,68.0 17.8125,65.6875 17.4375,63.0625 17.125,60.125 16.875,56.875 16.75,54.375 16.75,52.625 16.875,51.625 17.125,51.375 17.375,50.5625 17.625,49.1875 17.875,47.25 18.125,44.75 18.625,42.375 19.375,40.125 20.375,38.0 21.625,36.0 22.5625,34.1875 23.1875,32.5625 23.5,31.125 23.5,29.875 23.09375,28.46875 22.28125,26.90625 21.0625,25.1875 19.4375,23.3125 17.625,21.75 15.625,20.5 13.4375,19.5625 11.0625,18.9375 9.5,18.25 8.75,17.5 8.8125,16.6875 9.6875,15.8125 10.71875,15.09375 11.90625,14.53125 13.25,14.125 14.75,13.875 16.6875,13.3125 19.0625,12.4375 21.875,11.25 25.125,9.75 28.1875,8.6875 31.0625,8.0625 33.75,7.875 36.25,8.125 38.59375,8.59375 40.78125,9.28125 42.8125,10.1875 44.6875,11.3125 46.40625,12.65625 47.96875,14.21875 49.375,16.0 50.625,18.0 51.75,20.25 52.75,22.75 53.625,25.5 54.375,28.5 55.4375,31.25 56.8125,33.75 58.5,36.0 60.5,38.0 62.4375,40.3125 64.3125,42.9375 66.125,45.875 67.875,49.125 69.5625,52.6875 71.1875,56.5625 72.75,60.75 74.25,65.25 75.375,68.8125 76.125,71.4375 76.5,73.125 76.5,73.875 76.75,75.0 77.25,76.5 78.0,78.375 79.0,80.625 79.6875,82.5 80.0625,84.0 80.125,85.125 79.875,85.875 80.0,87.1875 80.5,89.0625 81.375,91.5 82.625,94.5 85.4375,98.75 89.8125,104.25 95.75,111.0 103.25,119.0 108.875,125.1875 112.625,129.5625 114.5,132.125 114.5,132.875 114.21875,133.65625 113.65625,134.46875 112.8125,135.3125 111.6875,136.1875 110.84375,136.84375 110.28125,137.28125 110.0,137.5 110.0,137.5 109.6875,137.5 109.0625,137.5" stroke="none" /></svg>