<?xml version="1.0" encoding="utf-8" ?>
<svg baseProfile="full" height="128" version="1.1" viewBox="0,0,142,128" width="142" xmlns="http://www.w3.org/2000/svg" xmlns:ev="http://www.w3.org/2001/xml-events" xmlns:xlink="http://www.w3.org/1999/xlink"><defs /><polygon fill="black" points="11.5,118.75 10.5,118.25 9.65625,117.71875 8.96875,117.15625 8.4375,116.5625 8.0625,115.9375 8.5,114.8125 9.75,113.1875 11.8125,111.0625 14.6875,108.4375 17.53125,105.96875 20.34375,103.65625 23.125,101.5 25.875,99.5 28.78125,97.09375 31.84375,94.28125 35.0625,91.0625 38.4375,87.4375 41.40625,83.84375 43.96875,80.28125 46.125,76.75 47.875,73.25 49.8125,69.625 51.9375,65.875 54.25,62.0 56.75,58.0 59.09375,54.46875 61.28125,51.40625 63.3125,48.8125 65.1875,46.6875 67.5,44.375 70.25,41.875 73.4375,39.1875 77.0625,36.3125 79.90625,33.53125 81.96875,30.84375 83.25,28.25 83.75,25.75 84.3125,23.5 84.9375,21.5 85.625,19.75 86.375,18.25 87.28125,16.78125 88.34375,15.34375 89.5625,13.9375 90.9375,12.5625 92.65625,11.34375 94.71875,10.28125 97.125,9.375 99.875,8.625 102.0,8.125 103.5,7.875 104.375,7.875 104.625,8.125 105.125,8.3125 105.875,8.4375 106.875,8.5 108.125,8.5 109.25,8.5625 110.25,8.6875 111.125,8.875 111.875,9.125 112.875,9.6875 114.125,10.5625 115.625,11.75 117.375,13.25 119.0625,14.4375 120.6875,15.3125 122.25,15.875 123.75,16.125 125.34375,16.59375 127.03125,17.28125 128.8125,18.1875 130.6875,19.3125 131.5,20.25 131.25,21.0 129.9375,21.5625 127.5625,21.9375 125.53125,22.34375 123.84375,22.78125 122.5,23.25 121.5,23.75 120.46875,24.40625 119.40625,25.21875 118.3125,26.1875 117.1875,27.3125 116.28125,28.40625 115.59375,29.46875 115.125,30.5 114.875,31.5 115.0,33.125 115.5,35.375 116.375,38.25 117.625,41.75 118.5625,45.3125 119.1875,48.9375 119.5,52.625 119.5,56.375 119.375,59.5625 119.125,62.1875 118.75,64.25 118.25,65.75 117.6875,67.25 117.0625,68.75 116.375,70.25 115.625,71.75 114.34375,73.65625 112.53125,75.96875 110.1875,78.6875 107.3125,81.8125 104.78125,84.40625 102.59375,86.46875 100.75,88.0 99.25,89.0 98.0,89.75 97.0,90.25 96.25,90.5 95.75,90.5 95.03125,90.78125 94.09375,91.34375 92.9375,92.1875 91.5625,93.3125 90.59375,94.34375 90.03125,95.28125 89.875,96.125 90.125,96.875 90.71875,97.84375 91.65625,99.03125 92.9375,100.4375 94.5625,102.0625 96.03125,103.40625 97.34375,104.46875 98.5,105.25 99.5,105.75 100.6875,106.125 102.0625,106.375 103.625,106.5 105.375,106.5 106.90625,106.65625 108.21875,106.96875 109.3125,107.4375 110.1875,108.0625 110.8125,108.625 111.1875,109.125 111.3125,109.5625 111.1875,109.9375 110.90625,110.15625 110.46875,110.21875 109.875,110.125 109.125,109.875 108.125,109.75 106.875,109.75 105.375,109.875 103.625,110.125 101.9375,110.625 100.3125,111.375 98.75,112.375 97.25,113.625 95.8125,114.5625 94.4375,115.1875 93.125,115.5 91.875,115.5 90.375,115.25 88.625,114.75 86.625,114.0 84.375,113.0 82.25,112.3125 80.25,111.9375 78.375,111.875 76.625,112.125 75.09375,112.15625 73.78125,111.96875 72.6875,111.5625 71.8125,110.9375 71.3125,110.4375 71.1875,110.0625 71.4375,109.8125 72.0625,109.6875 72.6875,109.4375 73.3125,109.0625 73.9375,108.5625 74.5625,107.9375 74.5,106.875 73.75,105.375 72.3125,103.4375 70.1875,101.0625 68.15625,99.40625 66.21875,98.46875 64.375,98.25 62.625,98.75 61.125,99.125 59.875,99.375 58.875,99.5 58.125,99.5 57.4375,99.375 56.8125,99.125 56.25,98.75 55.75,98.25 55.0,98.0 54.0,98.0 52.75,98.25 51.25,98.75 49.5,99.5 47.5,100.5 45.25,101.75 42.75,103.25 40.75,104.375 39.25,105.125 38.25,105.5 37.75,105.5 36.25,106.25 33.75,107.75 30.25,110.0 25.75,113.0 22.0,115.375 19.0,117.125 16.75,118.25 15.25,118.75 14.125,119.125 13.375,119.375 13.0,119.5 13.0,119.5 12.75,119.375 12.25,119.125" stroke="none" /></svg>