<svg id="Capa_1" enable-background="new 0 0 497 497" height="512" viewBox="0 0 497 497" width="512" xmlns="http://www.w3.org/2000/svg"><g><path d="m164.252 285.593 190.623-.012c57.781 0 104.79-47.009 104.79-104.791s-47.009-104.79-104.79-104.79h-274.336c-10.471 0-18.958 8.488-18.958 18.958s8.488 18.958 18.958 18.958h274.335c36.874 0 66.874 30 66.874 66.874s-29.999 66.874-66.874 66.874l-190.623.012c-57.782 0-104.791 47.009-104.791 104.791 0 57.781 47.009 104.79 104.791 104.79h251.314c10.471 0 18.958-8.488 18.958-18.958 0-10.471-8.488-18.958-18.958-18.958h-251.313c-36.874 0-66.874-29.999-66.874-66.874s30-66.874 66.874-66.874z" fill="#918291"/><path d="m495.585 387.846c0 39.304-40.565 85.187-59.927 104.849-5.573 5.659-14.659 5.754-20.335.198-19.449-19.04-59.704-63.469-59.704-105.046 0-38.651 31.333-69.984 69.984-69.984s69.982 31.332 69.982 69.983z" fill="#fd8087"/><path d="m457.755 325.692c4.992 9.63 7.83 20.558 7.83 32.154 0 39.305-40.564 85.186-59.927 104.849-3.911 3.972-9.55 5.191-14.528 3.652 8.868 10.981 17.693 20.183 24.193 26.546 5.676 5.557 14.762 5.462 20.336-.198 19.363-19.662 59.927-65.544 59.927-104.849-.002-27.055-15.363-50.507-37.831-62.154z" fill="#fe646f"/><path d="m141.383 69.984c0 39.304-40.565 85.187-59.927 104.849-5.573 5.66-14.66 5.754-20.336.198-19.449-19.041-59.704-63.47-59.704-105.047 0-38.651 31.332-69.984 69.983-69.984s69.984 31.333 69.984 69.984z" fill="#fd8087"/><path d="m103.553 7.83c4.993 9.63 7.83 20.558 7.83 32.154 0 39.305-40.565 85.186-59.928 104.848-3.911 3.972-9.55 5.191-14.528 3.652 8.868 10.981 17.693 20.183 24.193 26.546 5.676 5.557 14.762 5.462 20.336-.198 19.363-19.662 59.927-65.544 59.927-104.849 0-27.054-15.362-50.506-37.83-62.153z" fill="#fe646f"/><circle cx="362.598" cy="100.471" fill="#60b7ff" r="35.599"/><circle cx="170.088" cy="264.199" fill="#ffe177" r="35.599"/><ellipse cx="224.221" cy="439.422" fill="#9be69d" rx="35.599" ry="35.599" transform="matrix(.16 -.987 .987 .16 -245.444 590.361)"/><ellipse cx="425.601" cy="389.765" fill="#faf7f7" rx="33.465" ry="33.465" transform="matrix(.924 -.383 .383 .924 -116.76 192.54)"/><path d="m377.431 68.11c.5 2.375.766 4.836.766 7.36 0 19.661-15.938 35.6-35.599 35.6-5.296 0-10.316-1.165-14.833-3.239 3.391 16.128 17.696 28.239 34.833 28.239 19.661 0 35.599-15.938 35.599-35.6.001-14.365-8.513-26.734-20.766-32.36z" fill="#26a6fe"/><path d="m184.921 231.839c.5 2.376.766 4.837.766 7.36 0 19.661-15.938 35.6-35.599 35.6-5.296 0-10.316-1.165-14.833-3.239 3.391 16.129 17.696 28.239 34.833 28.239 19.661 0 35.599-15.938 35.599-35.6.001-14.365-8.513-26.734-20.766-32.36z" fill="#ffd15b"/><path d="m239.054 407.062c.5 2.375.766 4.836.766 7.36 0 19.661-15.938 35.6-35.599 35.6-5.296 0-10.316-1.165-14.833-3.239 3.391 16.128 17.696 28.239 34.833 28.239 19.661 0 35.599-15.939 35.599-35.6 0-14.365-8.513-26.734-20.766-32.36z" fill="#6fd7a3"/><ellipse cx="71.399" cy="71.903" fill="#faf7f7" rx="33.465" ry="33.465" transform="matrix(.924 -.383 .383 .924 -22.081 32.797)"/></g></svg>