<svg width="421" height="54" viewBox="0 0 421 54" fill="none" xmlns="http://www.w3.org/2000/svg">
<g clip-path="url(#clip0_2_8)">
<path d="M4.75126 6.25126C4.58397 6.08397 4.42875 5.905 4.2868 5.71573L0 0H1.21618C1.73555 0 2.25176 0.0809229 2.74622 0.239857L14.355 3.97125C15.4436 4.32116 16.4641 4.85517 17.3722 5.55008L22.025 9.11069C22.5558 9.5169 22.9998 10.0254 23.3307 10.6062L26.0162 15.3194C26.2241 15.6844 26.4772 16.0217 26.7695 16.3234L27.5823 17.1622C29.0019 18.6274 31.2385 18.934 33 17.9048L34.4955 16.9861C35.1523 16.5826 35.9081 16.369 36.6789 16.369C37.2211 16.369 37.7581 16.4747 38.2598 16.6802L39.3438 17.1241C39.7665 17.2972 40.1107 17.6196 40.3112 18.03L40.4187 18.2501C40.4722 18.3597 40.5 18.48 40.5 18.602C40.5 18.8114 40.5819 19.0124 40.7282 19.1622L41 19.4405L40.8114 19.5015C40.4908 19.6053 40.1816 19.7412 39.8883 19.9072L38.3219 20.794C38.1084 20.9148 37.913 21.0653 37.7415 21.2408C37.2661 21.7275 37 22.3809 37 23.0613V23.9599C37 24.6495 37.3862 25.281 38 25.5952L44.8125 30.0504C45.2678 30.3481 45.6714 30.7182 46.0075 31.1459L49.5471 35.6508C50.5026 36.867 51.1631 38.2883 51.4765 39.803L53.7926 50.9976C53.9305 51.6641 54 52.343 54 53.0236V54L48.158 49.9556C47.7221 49.6538 47.337 49.2846 47.017 48.8618L40.1789 39.8257C39.7319 39.235 39.1592 38.751 38.5022 38.4087L32.0859 35.0657C31.3725 34.6941 30.58 34.5 29.7756 34.5H28.5358C27.8525 34.5 27.1765 34.64 26.5494 34.9115L22.6412 36.6034C22.2158 36.7875 21.8181 37.03 21.4594 37.3237L19.8383 38.6515C19.6132 38.8359 19.4046 39.0395 19.2149 39.2602L16 43L15.5865 41.3166C15.2167 39.8107 14.169 38.5617 12.7505 37.9353L9.5 36.5L16.2211 33.5971C16.7367 33.3744 17.2111 33.0665 17.6243 32.6862L18.4428 31.933C19.4098 31.0431 19.8427 29.7135 19.585 28.4249C19.5285 28.1426 19.4398 27.8676 19.3207 27.6055L17 22.5L14.3793 16.3851C14.1287 15.8004 13.7689 15.2689 13.3191 14.8191L4.75126 6.25126Z" fill="black"/>
<path d="M78.875 41V9.15H90.275C93.9917 9.15 96.8167 10.0333 98.75 11.8C100.7 13.55 101.675 15.8583 101.675 18.725C101.675 21.5583 100.7 23.85 98.75 25.6C96.8167 27.35 93.9917 28.225 90.275 28.225H83.625V41H78.875ZM96.45 41L87.625 26.35H92.75L102.625 41H96.45ZM83.625 24.975H89.85C92.1167 24.975 93.8417 24.4333 95.025 23.35C96.2083 22.25 96.8 20.8333 96.8 19.1C96.8 17.3167 96.2417 15.9 95.125 14.85C94.025 13.7833 92.4083 13.25 90.275 13.25H83.625V24.975ZM118.799 41.65C116.732 41.65 114.865 41.1167 113.199 40.05C111.532 38.9833 110.207 37.5 109.224 35.6C108.257 33.7 107.774 31.5 107.774 29C107.774 26.35 108.257 24.0833 109.224 22.2C110.19 20.3 111.507 18.8417 113.174 17.825C114.84 16.8083 116.715 16.3 118.799 16.3C120.665 16.3 122.265 16.6833 123.599 17.45C124.932 18.2 126.007 19.2167 126.824 20.5C127.64 21.7667 128.199 23.2083 128.499 24.825C128.815 26.4417 128.874 28.1083 128.674 29.825H111.574V27.075H125.424L124.274 27.825C124.324 26.925 124.274 26.025 124.124 25.125C123.99 24.225 123.724 23.4 123.324 22.65C122.924 21.8833 122.357 21.275 121.624 20.825C120.907 20.3583 119.99 20.125 118.874 20.125C117.474 20.125 116.299 20.475 115.349 21.175C114.415 21.875 113.707 22.8167 113.224 24C112.74 25.1667 112.499 26.45 112.499 27.85V29.775C112.499 31.325 112.732 32.7 113.199 33.9C113.665 35.1 114.357 36.05 115.274 36.75C116.207 37.4333 117.382 37.775 118.799 37.775C120.182 37.775 121.324 37.45 122.224 36.8C123.14 36.15 123.707 35.175 123.924 33.875H128.774C128.524 35.4417 127.949 36.8083 127.049 37.975C126.149 39.1417 124.99 40.05 123.574 40.7C122.174 41.3333 120.582 41.65 118.799 41.65ZM143.924 41.65C142.558 41.65 141.324 41.3917 140.224 40.875C139.124 40.3583 138.249 39.5833 137.599 38.55C136.966 37.5 136.649 36.1833 136.649 34.6V10.4H141.374V34.45C141.374 36.7167 142.433 37.85 144.549 37.85C145.199 37.85 145.833 37.7833 146.449 37.65C147.066 37.5 147.766 37.2833 148.549 37L149.224 40.375C148.341 40.7417 147.466 41.0417 146.599 41.275C145.749 41.525 144.858 41.65 143.924 41.65ZM132.974 20.175V16.95H148.499V20.175H132.974ZM171.589 16.875H176.364V41H171.589V16.875ZM154.789 16.875H159.539V31.775C159.539 33.5917 159.98 34.9667 160.864 35.9C161.764 36.8333 163.022 37.3 164.639 37.3C166.005 37.3 167.205 36.9417 168.239 36.225C169.289 35.5083 170.105 34.4917 170.689 33.175C171.289 31.8583 171.589 30.3 171.589 28.5H173.114C173.114 31.3167 172.73 33.6833 171.964 35.6C171.197 37.5167 170.122 38.975 168.739 39.975C167.355 40.9583 165.739 41.45 163.889 41.45C162.122 41.45 160.547 41.125 159.164 40.475C157.797 39.825 156.722 38.825 155.939 37.475C155.172 36.1083 154.789 34.35 154.789 32.2V16.875ZM186.102 41V16.875H190.852V41H186.102ZM189.552 30.25C189.552 27.1667 189.868 24.6083 190.502 22.575C191.152 20.525 192.052 19 193.202 18C194.368 17 195.735 16.5 197.302 16.5C197.768 16.5 198.202 16.5333 198.602 16.6C199.018 16.6667 199.427 16.7583 199.827 16.875L199.652 21.6C199.202 21.4833 198.71 21.3833 198.177 21.3C197.66 21.2 197.185 21.15 196.752 21.15C195.385 21.15 194.268 21.5167 193.402 22.25C192.535 22.9667 191.893 24.0083 191.477 25.375C191.06 26.725 190.852 28.35 190.852 30.25H189.552ZM221.653 41V26.9C221.653 24.8167 221.153 23.2417 220.153 22.175C219.169 21.0917 217.836 20.55 216.153 20.55C214.819 20.55 213.653 20.9167 212.653 21.65C211.669 22.3667 210.903 23.425 210.353 24.825C209.819 26.2083 209.553 27.9 209.553 29.9H207.853C207.853 26.95 208.228 24.4667 208.978 22.45C209.744 20.4333 210.836 18.9083 212.253 17.875C213.669 16.825 215.369 16.3 217.353 16.3C219.286 16.3 220.919 16.7333 222.253 17.6C223.603 18.4667 224.628 19.7 225.328 21.3C226.028 22.8833 226.378 24.75 226.378 26.9V41H221.653ZM204.803 41V16.95H208.928L209.553 22.15V41H204.803ZM258.225 41.65C256.058 41.65 254.067 41.2667 252.25 40.5C250.433 39.7167 248.967 38.5583 247.85 37.025C246.75 35.4917 246.175 33.575 246.125 31.275H250.775C250.775 32.6583 251.108 33.7917 251.775 34.675C252.458 35.5583 253.358 36.2167 254.475 36.65C255.592 37.0667 256.825 37.275 258.175 37.275C259.542 37.275 260.75 37.0667 261.8 36.65C262.85 36.2333 263.658 35.675 264.225 34.975C264.808 34.275 265.1 33.475 265.1 32.575C265.1 31.3583 264.725 30.3833 263.975 29.65C263.225 28.9 262.083 28.2667 260.55 27.75L254.625 25.55C252.075 24.6 250.133 23.5083 248.8 22.275C247.467 21.025 246.8 19.2917 246.8 17.075C246.8 14.5583 247.783 12.5167 249.75 10.95C251.717 9.36667 254.483 8.575 258.05 8.575C261.433 8.575 264.058 9.35833 265.925 10.925C267.808 12.4917 268.883 14.625 269.15 17.325H264.475C264.242 15.9583 263.6 14.875 262.55 14.075C261.517 13.275 260.017 12.875 258.05 12.875C256.15 12.875 254.667 13.2917 253.6 14.125C252.533 14.9417 252 15.975 252 17.225C252 18.2583 252.333 19.0833 253 19.7C253.683 20.3167 254.742 20.875 256.175 21.375L262.925 23.85C265.242 24.6667 267.05 25.7667 268.35 27.15C269.65 28.5333 270.3 30.2917 270.3 32.425C270.3 34.225 269.833 35.8167 268.9 37.2C267.967 38.5833 266.6 39.675 264.8 40.475C263 41.2583 260.808 41.65 258.225 41.65ZM281.283 11.825C280.333 11.825 279.583 11.5667 279.033 11.05C278.5 10.5167 278.233 9.8 278.233 8.9C278.233 8.03333 278.5 7.35 279.033 6.85C279.583 6.33333 280.333 6.075 281.283 6.075C282.217 6.075 282.95 6.33333 283.483 6.85C284.033 7.35 284.308 8.03333 284.308 8.9C284.308 9.8 284.033 10.5167 283.483 11.05C282.95 11.5667 282.217 11.825 281.283 11.825ZM278.908 41V16.875H283.658V41H278.908ZM302.911 53.4C300.311 53.4 298.069 53.0417 296.186 52.325C294.319 51.6083 292.877 50.65 291.861 49.45C290.844 48.25 290.336 46.9417 290.336 45.525C290.336 43.725 290.994 42.3417 292.311 41.375C293.627 40.425 295.302 39.95 297.336 39.95L300.411 41.4C298.677 41.4 297.336 41.75 296.386 42.45C295.452 43.15 294.986 44.1 294.986 45.3C294.986 46.55 295.669 47.575 297.036 48.375C298.402 49.1917 300.361 49.6 302.911 49.6C304.761 49.6 306.386 49.325 307.786 48.775C309.186 48.2417 310.269 47.5333 311.036 46.65C311.802 45.7833 312.186 44.85 312.186 43.85C312.186 43.1667 311.936 42.5833 311.436 42.1C310.952 41.6333 310.211 41.4 309.211 41.4H300.411C298.777 41.4 297.336 41.15 296.086 40.65C294.852 40.1333 293.886 39.4583 293.186 38.625C292.486 37.7917 292.136 36.8667 292.136 35.85C292.136 34.85 292.419 33.9917 292.986 33.275C293.552 32.5417 294.302 31.9917 295.236 31.625C296.169 31.2417 297.194 31.05 298.311 31.05L299.386 32.7C298.902 32.7 298.419 32.8083 297.936 33.025C297.452 33.225 297.052 33.5333 296.736 33.95C296.419 34.3667 296.261 34.8833 296.261 35.5C296.261 36.2167 296.561 36.8167 297.161 37.3C297.777 37.7667 298.861 38 300.411 38H309.211C311.611 38 313.494 38.475 314.861 39.425C316.227 40.375 316.911 41.7583 316.911 43.575C316.911 45.225 316.344 46.8 315.211 48.3C314.077 49.8 312.461 51.025 310.361 51.975C308.277 52.925 305.794 53.4 302.911 53.4ZM303.436 33.775C301.569 33.775 299.869 33.4167 298.336 32.7C296.819 31.9667 295.611 30.95 294.711 29.65C293.811 28.3333 293.361 26.8 293.361 25.05C293.361 23.2833 293.811 21.75 294.711 20.45C295.611 19.1333 296.819 18.1167 298.336 17.4C299.869 16.6667 301.569 16.3 303.436 16.3C305.252 16.3 306.911 16.6667 308.411 17.4C309.927 18.1167 311.136 19.1333 312.036 20.45C312.952 21.75 313.411 23.2833 313.411 25.05C313.411 26.8 312.952 28.3333 312.036 29.65C311.136 30.95 309.927 31.9667 308.411 32.7C306.911 33.4167 305.252 33.775 303.436 33.775ZM303.436 30.425C305.152 30.425 306.461 29.9167 307.361 28.9C308.277 27.8667 308.736 26.5833 308.736 25.05C308.736 23.45 308.277 22.1583 307.361 21.175C306.461 20.1917 305.152 19.7 303.436 19.7C301.752 19.7 300.436 20.1917 299.486 21.175C298.552 22.1583 298.086 23.45 298.086 25.05C298.086 26.5833 298.552 27.8667 299.486 28.9C300.436 29.9167 301.752 30.425 303.436 30.425ZM311.611 20.15L309.386 19.075C309.386 17.6417 309.686 16.3917 310.286 15.325C310.886 14.2583 311.719 13.425 312.786 12.825C313.852 12.225 315.077 11.925 316.461 11.925L316.161 16.55C314.677 16.55 313.544 16.8417 312.761 17.425C311.994 18.0083 311.611 18.9167 311.611 20.15ZM339.524 41V26.9C339.524 24.8167 339.024 23.2417 338.024 22.175C337.04 21.0917 335.707 20.55 334.024 20.55C332.69 20.55 331.524 20.9167 330.524 21.65C329.54 22.3667 328.774 23.425 328.224 24.825C327.69 26.2083 327.424 27.9 327.424 29.9H325.724C325.724 26.95 326.099 24.4667 326.849 22.45C327.615 20.4333 328.707 18.9083 330.124 17.875C331.54 16.825 333.24 16.3 335.224 16.3C337.157 16.3 338.79 16.7333 340.124 17.6C341.474 18.4667 342.499 19.7 343.199 21.3C343.899 22.8833 344.249 24.75 344.249 26.9V41H339.524ZM322.674 41V16.95H326.799L327.424 22.15V41H322.674ZM368.364 41L367.764 35.475V25.45C367.764 23.4833 367.356 22.0583 366.539 21.175C365.722 20.275 364.431 19.825 362.664 19.825C361.664 19.825 360.772 19.975 359.989 20.275C359.222 20.5583 358.614 20.9917 358.164 21.575C357.731 22.1583 357.514 22.8917 357.514 23.775H352.264C352.264 22.0083 352.697 20.575 353.564 19.475C354.431 18.375 355.639 17.575 357.189 17.075C358.756 16.5583 360.581 16.3 362.664 16.3C364.614 16.3 366.331 16.625 367.814 17.275C369.297 17.9083 370.447 18.9083 371.264 20.275C372.097 21.6417 372.514 23.4083 372.514 25.575V41H368.364ZM360.314 41.65C358.297 41.65 356.622 41.3 355.289 40.6C353.956 39.8833 352.956 38.95 352.289 37.8C351.639 36.65 351.314 35.425 351.314 34.125C351.314 32.5417 351.714 31.2417 352.514 30.225C353.331 29.1917 354.456 28.425 355.889 27.925C357.322 27.425 358.972 27.175 360.839 27.175C362.122 27.175 363.372 27.2917 364.589 27.525C365.806 27.7583 367.006 28.0667 368.189 28.45V31.325C367.222 30.975 366.147 30.7 364.964 30.5C363.797 30.2833 362.706 30.175 361.689 30.175C360.172 30.175 358.906 30.475 357.889 31.075C356.872 31.675 356.364 32.6917 356.364 34.125C356.364 35.175 356.764 36.0833 357.564 36.85C358.364 37.6 359.631 37.975 361.364 37.975C362.631 37.975 363.747 37.6917 364.714 37.125C365.681 36.5417 366.431 35.8167 366.964 34.95C367.497 34.0833 367.764 33.2167 367.764 32.35H368.914C368.914 34.0167 368.572 35.5583 367.889 36.975C367.222 38.375 366.247 39.5083 364.964 40.375C363.681 41.225 362.131 41.65 360.314 41.65ZM381.561 41V6.825H386.311V41H381.561ZM404.863 41.65C402.529 41.65 400.563 41.325 398.963 40.675C397.363 40.0083 396.138 39.0917 395.288 37.925C394.454 36.7417 394.021 35.3583 393.988 33.775H398.463C398.529 35.1583 399.079 36.1833 400.113 36.85C401.163 37.5167 402.579 37.85 404.363 37.85C405.313 37.85 406.171 37.7 406.938 37.4C407.721 37.1 408.338 36.6917 408.788 36.175C409.254 35.6583 409.488 35.075 409.488 34.425C409.488 33.6083 409.188 32.9667 408.588 32.5C407.988 32.0167 407.021 31.5917 405.688 31.225L400.763 29.55C398.796 28.8833 397.288 28 396.238 26.9C395.188 25.7833 394.663 24.45 394.663 22.9C394.663 20.9167 395.546 19.325 397.313 18.125C399.079 16.9083 401.421 16.3 404.338 16.3C407.354 16.3 409.679 16.9417 411.313 18.225C412.963 19.4917 413.821 21.0833 413.888 23H409.313C409.196 22.05 408.721 21.325 407.888 20.825C407.071 20.3083 405.888 20.05 404.338 20.05C402.888 20.05 401.746 20.3667 400.913 21C400.096 21.6333 399.688 22.35 399.688 23.15C399.688 24.5833 400.921 25.65 403.388 26.35L408.563 28.175C410.529 28.8083 412.046 29.625 413.113 30.625C414.179 31.625 414.713 32.8917 414.713 34.425C414.713 35.6583 414.304 36.825 413.488 37.925C412.671 39.025 411.521 39.925 410.038 40.625C408.571 41.3083 406.846 41.65 404.863 41.65Z" fill="black"/>
</g>
<defs>
<clipPath id="clip0_2_8">
<rect width="421" height="54" fill="white"/>
</clipPath>
</defs>
</svg>
