<svg width="84" height="84" viewBox="0 0 84 84" fill="none" xmlns="http://www.w3.org/2000/svg">
<g clip-path="url(#clip0_22_10)">
<circle cx="42" cy="42" r="42" fill="black"/>
<path d="M19.7513 21.2513C19.584 21.084 19.4288 20.905 19.2868 20.7157L15 15H16.2162C16.7356 15 17.2518 15.0809 17.7462 15.2399L29.355 18.9713C30.4436 19.3212 31.4641 19.8552 32.3722 20.5501L37.025 24.1107C37.5558 24.5169 37.9998 25.0254 38.3307 25.6062L41.0162 30.3194C41.2241 30.6844 41.4772 31.0217 41.7695 31.3234L42.5823 32.1622C44.0019 33.6274 46.2385 33.934 48 32.9048L49.4955 31.9861C50.1523 31.5826 50.9081 31.369 51.6789 31.369C52.2211 31.369 52.7581 31.4747 53.2598 31.6802L54.3438 32.1241C54.7665 32.2972 55.1107 32.6196 55.3112 33.03L55.4187 33.2501C55.4722 33.3597 55.5 33.48 55.5 33.602C55.5 33.8114 55.5819 34.0124 55.7282 34.1622L56 34.4405L55.8114 34.5015C55.4908 34.6053 55.1816 34.7412 54.8883 34.9072L53.3219 35.794C53.1084 35.9148 52.913 36.0653 52.7415 36.2408C52.2661 36.7275 52 37.3809 52 38.0613V38.9599C52 39.6495 52.3862 40.281 53 40.5952L59.8125 45.0504C60.2678 45.3481 60.6714 45.7182 61.0075 46.1459L64.5471 50.6508C65.5026 51.867 66.1631 53.2883 66.4765 54.803L68.7926 65.9976C68.9305 66.6641 69 67.343 69 68.0236V69L63.158 64.9556C62.7221 64.6538 62.337 64.2846 62.017 63.8618L55.1789 54.8257C54.7319 54.235 54.1592 53.751 53.5022 53.4087L47.0859 50.0657C46.3725 49.6941 45.58 49.5 44.7756 49.5H43.5358C42.8525 49.5 42.1765 49.64 41.5494 49.9115L37.6412 51.6034C37.2158 51.7875 36.8181 52.03 36.4594 52.3237L34.8383 53.6515C34.6132 53.8359 34.4046 54.0395 34.2149 54.2602L31 58L30.5865 56.3166C30.2167 54.8107 29.169 53.5617 27.7505 52.9353L24.5 51.5L31.2211 48.5971C31.7367 48.3744 32.2111 48.0665 32.6243 47.6862L33.4428 46.933C34.4098 46.0431 34.8427 44.7135 34.585 43.4249C34.5285 43.1426 34.4398 42.8676 34.3207 42.6055L32 37.5L29.3793 31.3851C29.1287 30.8004 28.7689 30.2689 28.3191 29.8191L19.7513 21.2513Z" fill="white"/>
</g>
<defs>
<clipPath id="clip0_22_10">
<rect width="84" height="84" fill="white"/>
</clipPath>
</defs>
</svg>
