<svg width="54" height="54" viewBox="0 0 54 54" fill="none" xmlns="http://www.w3.org/2000/svg">
  <style>
    @media (prefers-color-scheme: dark) {
      .light { display: none; }
      .dark { display: block; }
    }
    @media (prefers-color-scheme: light) {
      .light { display: block; }
      .dark { display: none; }
    }
  </style>

  <!-- Black logo for light mode -->
  <g class="light" clip-path="url(#clip0_light)">
    <path d="M4.75126 6.25126C4.58397 6.08397 4.42875 5.905 4.2868 5.71573L0 0H1.21618C1.73555 0 2.25176 0.0809229 2.74622 0.239857L14.355 3.97125C15.4436 4.32116 16.4641 4.85517 17.3722 5.55008L22.025 9.11069C22.5558 9.5169 22.9998 10.0254 23.3307 10.6062L26.0162 15.3194C26.2241 15.6844 26.4772 16.0217 26.7695 16.3234L27.5823 17.1622C29.0019 18.6274 31.2385 18.934 33 17.9048L34.4955 16.9861C35.1523 16.5826 35.9081 16.369 36.6789 16.369C37.2211 16.369 37.7581 16.4747 38.2598 16.6802L39.3438 17.1241C39.7665 17.2972 40.1107 17.6196 40.3112 18.03L40.4187 18.2501C40.4722 18.3597 40.5 18.48 40.5 18.602C40.5 18.8114 40.5819 19.0124 40.7282 19.1622L41 19.4405L40.8114 19.5015C40.4908 19.6053 40.1816 19.7412 39.8883 19.9072L38.3219 20.794C38.1084 20.9148 37.913 21.0653 37.7415 21.2408C37.2661 21.7275 37 22.3809 37 23.0613V23.9599C37 24.6495 37.3862 25.281 38 25.5952L44.8125 30.0504C45.2678 30.3481 45.6714 30.7182 46.0075 31.1459L49.5471 35.6508C50.5026 36.867 51.1631 38.2883 51.4765 39.803L53.7926 50.9976C53.9305 51.6641 54 52.343 54 53.0236V54L48.158 49.9556C47.7221 49.6538 47.337 49.2846 47.017 48.8618L40.1789 39.8257C39.7319 39.235 39.1592 38.751 38.5022 38.4087L32.0859 35.0657C31.3725 34.6941 30.58 34.5 29.7756 34.5H28.5358C27.8525 34.5 27.1765 34.64 26.5494 34.9115L22.6412 36.6034C22.2158 36.7875 21.8181 37.03 21.4594 37.3237L19.8383 38.6515C19.6132 38.8359 19.4046 39.0395 19.2149 39.2602L16 43L15.5865 41.3166C15.2167 39.8107 14.169 38.5617 12.7505 37.9353L9.5 36.5L16.2211 33.5971C16.7367 33.3744 17.2111 33.0665 17.6243 32.6862L18.4428 31.933C19.4098 31.0431 19.8427 29.7135 19.585 28.4249C19.5285 28.1426 19.4398 27.8676 19.3207 27.6055L17 22.5L14.3793 16.3851C14.1287 15.8004 13.7689 15.2689 13.3191 14.8191L4.75126 6.25126Z" fill="black"/>
  </g>

  <!-- White logo for dark mode -->
  <g class="dark" clip-path="url(#clip0_dark)">
    <path d="M4.75126 6.25126C4.58397 6.08397 4.42875 5.905 4.2868 5.71573L0 0H1.21618C1.73555 0 2.25176 0.0809229 2.74622 0.239857L14.355 3.97125C15.4436 4.32116 16.4641 4.85517 17.3722 5.55008L22.025 9.11069C22.5558 9.5169 22.9998 10.0254 23.3307 10.6062L26.0162 15.3194C26.2241 15.6844 26.4772 16.0217 26.7695 16.3234L27.5823 17.1622C29.0019 18.6274 31.2385 18.934 33 17.9048L34.4955 16.9861C35.1523 16.5826 35.9081 16.369 36.6789 16.369C37.2211 16.369 37.7581 16.4747 38.2598 16.6802L39.3438 17.1241C39.7665 17.2972 40.1107 17.6196 40.3112 18.03L40.4187 18.2501C40.4722 18.3597 40.5 18.48 40.5 18.602C40.5 18.8114 40.5819 19.0124 40.7282 19.1622L41 19.4405L40.8114 19.5015C40.4908 19.6053 40.1816 19.7412 39.8883 19.9072L38.3219 20.794C38.1084 20.9148 37.913 21.0653 37.7415 21.2408C37.2661 21.7275 37 22.3809 37 23.0613V23.9599C37 24.6495 37.3862 25.281 38 25.5952L44.8125 30.0504C45.2678 30.3481 45.6714 30.7182 46.0075 31.1459L49.5471 35.6508C50.5026 36.867 51.1631 38.2883 51.4765 39.803L53.7926 50.9976C53.9305 51.6641 54 52.343 54 53.0236V54L48.158 49.9556C47.7221 49.6538 47.337 49.2846 47.017 48.8618L40.1789 39.8257C39.7319 39.235 39.1592 38.751 38.5022 38.4087L32.0859 35.0657C31.3725 34.6941 30.58 34.5 29.7756 34.5H28.5358C27.8525 34.5 27.1765 34.64 26.5494 34.9115L22.6412 36.6034C22.2158 36.7875 21.8181 37.03 21.4594 37.3237L19.8383 38.6515C19.6132 38.8359 19.4046 39.0395 19.2149 39.2602L16 43L15.5865 41.3166C15.2167 39.8107 14.169 38.5617 12.7505 37.9353L9.5 36.5L16.2211 33.5971C16.7367 33.3744 17.2111 33.0665 17.6243 32.6862L18.4428 31.933C19.4098 31.0431 19.8427 29.7135 19.585 28.4249C19.5285 28.1426 19.4398 27.8676 19.3207 27.6055L17 22.5L14.3793 16.3851C14.1287 15.8004 13.7689 15.2689 13.3191 14.8191L4.75126 6.25126Z" fill="white"/>
  </g>

  <defs>
    <clipPath id="clip0_light">
      <rect width="54" height="54" fill="white"/>
    </clipPath>
    <clipPath id="clip0_dark">
      <rect width="54" height="54" fill="white"/>
    </clipPath>
  </defs>
</svg>
