<?xml version="1.0" encoding="utf-8" ?>
<svg baseProfile="full" height="177" version="1.1" viewBox="0,0,123,177" width="123" xmlns="http://www.w3.org/2000/svg" xmlns:ev="http://www.w3.org/2001/xml-events" xmlns:xlink="http://www.w3.org/1999/xlink"><defs /><polygon fill="black" points="24.875,168.5 24.125,168.5 23.53125,168.40625 23.09375,168.21875 22.8125,167.9375 22.6875,167.5625 23.71875,165.40625 25.90625,161.46875 29.25,155.75 33.75,148.25 37.25,142.1875 39.75,137.5625 41.25,134.375 41.75,132.625 42.125,131.0 42.375,129.5 42.5,128.125 42.5,126.875 42.625,125.625 42.875,124.375 43.25,123.125 43.75,121.875 43.96875,120.78125 43.90625,119.84375 43.5625,119.0625 42.9375,118.4375 42.21875,118.09375 41.40625,118.03125 40.5,118.25 39.5,118.75 38.0,119.0625 36.0,119.1875 33.5,119.125 30.5,118.875 27.3125,118.875 23.9375,119.125 20.375,119.625 16.625,120.375 13.59375,120.90625 11.28125,121.21875 9.6875,121.3125 8.8125,121.1875 8.6875,120.625 9.3125,119.625 10.6875,118.1875 12.8125,116.3125 15.53125,114.28125 18.84375,112.09375 22.75,109.75 27.25,107.25 31.75,104.875 36.25,102.625 40.75,100.5 45.25,98.5 48.90625,96.71875 51.71875,95.15625 53.6875,93.8125 54.8125,92.6875 55.53125,91.71875 55.84375,90.90625 55.75,90.25 55.25,89.75 54.875,89.0 54.625,88.0 54.5,86.75 54.5,85.25 54.6875,83.75 55.0625,82.25 55.625,80.75 56.375,79.25 57.125,77.375 57.875,75.125 58.625,72.5 59.375,69.5 60.375,66.5 61.625,63.5 63.125,60.5 64.875,57.5 66.4375,55.0 67.8125,53.0 69.0,51.5 70.0,50.5 71.125,48.4375 72.375,45.3125 73.75,41.125 75.25,35.875 76.625,31.5 77.875,28.0 79.0,25.375 80.0,23.625 80.9375,21.5625 81.8125,19.1875 82.625,16.5 83.375,13.5 83.875,11.1875 84.125,9.5625 84.125,8.625 83.875,8.375 83.78125,8.15625 83.84375,7.96875 84.0625,7.8125 84.4375,7.6875 85.03125,7.90625 85.84375,8.46875 86.875,9.375 88.125,10.625 89.125,11.5 89.875,12.0 90.375,12.125 90.625,11.875 90.90625,11.78125 91.21875,11.84375 91.5625,12.0625 91.9375,12.4375 92.46875,13.21875 93.15625,14.40625 94.0,16.0 95.0,18.0 96.0,20.1875 97.0,22.5625 98.0,25.125 99.0,27.875 99.875,30.9375 100.625,34.3125 101.25,38.0 101.75,42.0 102.1875,45.0625 102.5625,47.1875 102.875,48.375 103.125,48.625 103.3125,49.6875 103.4375,51.5625 103.5,54.25 103.5,57.75 103.375,60.875 103.125,63.625 102.75,66.0 102.25,68.0 101.3125,70.4375 99.9375,73.3125 98.125,76.625 95.875,80.375 94.1875,83.4375 93.0625,85.8125 92.5,87.5 92.5,88.5 92.65625,89.40625 92.96875,90.21875 93.4375,90.9375 94.0625,91.5625 94.78125,92.09375 95.59375,92.53125 96.5,92.875 97.5,93.125 98.65625,93.59375 99.96875,94.28125 101.4375,95.1875 103.0625,96.3125 104.84375,98.21875 106.78125,100.90625 108.875,104.375 111.125,108.625 112.65625,111.90625 113.46875,114.21875 113.5625,115.5625 112.9375,115.9375 112.03125,116.03125 110.84375,115.84375 109.375,115.375 107.625,114.625 105.5625,114.125 103.1875,113.875 100.5,113.875 97.5,114.125 94.5625,114.8125 91.6875,115.9375 88.875,117.5 86.125,119.5 83.25,121.375 80.25,123.125 77.125,124.75 73.875,126.25 70.96875,127.90625 68.40625,129.71875 66.1875,131.6875 64.3125,133.8125 63.1875,135.6875 62.8125,137.3125 63.1875,138.6875 64.3125,139.8125 65.03125,140.59375 65.34375,141.03125 65.25,141.125 64.75,140.875 64.125,141.0 63.375,141.5 62.5,142.375 61.5,143.625 60.5625,144.4375 59.6875,144.8125 58.875,144.75 58.125,144.25 56.3125,145.1875 53.4375,147.5625 49.5,151.375 44.5,156.625 40.375,160.75 37.125,163.75 34.75,165.625 33.25,166.375 31.9375,166.875 30.8125,167.125 29.875,167.125 29.125,166.875 28.4375,166.8125 27.8125,166.9375 27.25,167.25 26.75,167.75 26.375,168.125 26.125,168.375 26.0,168.5 26.0,168.5 25.8125,168.5 25.4375,168.5" stroke="none" /></svg>