<?xml version="1.0" encoding="utf-8" ?>
<svg baseProfile="full" height="162" version="1.1" viewBox="0,0,137,162" width="137" xmlns="http://www.w3.org/2000/svg" xmlns:ev="http://www.w3.org/2001/xml-events" xmlns:xlink="http://www.w3.org/1999/xlink"><defs /><polygon fill="black" points="124.125,151.625 122.875,150.375 121.8125,149.4375 120.9375,148.8125 120.25,148.5 119.75,148.5 118.4375,147.4375 116.3125,145.3125 113.375,142.125 109.625,137.875 105.4375,133.8125 100.8125,129.9375 95.75,126.25 90.25,122.75 85.6875,119.6875 82.0625,117.0625 79.375,114.875 77.625,113.125 74.5625,111.8125 70.1875,110.9375 64.5,110.5 57.5,110.5 51.75,110.8125 47.25,111.4375 44.0,112.375 42.0,113.625 40.0625,115.0625 38.1875,116.6875 36.375,118.5 34.625,120.5 33.0625,122.125 31.6875,123.375 30.5,124.25 29.5,124.75 28.0625,124.875 26.1875,124.625 23.875,124.0 21.125,123.0 18.96875,122.15625 17.40625,121.46875 16.4375,120.9375 16.0625,120.5625 15.78125,120.09375 15.59375,119.53125 15.5,118.875 15.5,118.125 15.0,117.125 14.0,115.875 12.5,114.375 10.5,112.625 9.125,111.0 8.375,109.5 8.25,108.125 8.75,106.875 9.28125,105.84375 9.84375,105.03125 10.4375,104.4375 11.0625,104.0625 12.03125,103.65625 13.34375,103.21875 15.0,102.75 17.0,102.25 18.6875,101.9375 20.0625,101.8125 21.125,101.875 21.875,102.125 22.875,102.25 24.125,102.25 25.625,102.125 27.375,101.875 29.3125,101.4375 31.4375,100.8125 33.75,100.0 36.25,99.0 38.71875,97.65625 41.15625,95.96875 43.5625,93.9375 45.9375,91.5625 46.90625,88.59375 46.46875,85.03125 44.625,80.875 41.375,76.125 38.6875,72.0 36.5625,68.5 35.0,65.625 34.0,63.375 33.25,61.375 32.75,59.625 32.5,58.125 32.5,56.875 31.8125,55.0625 30.4375,52.6875 28.375,49.75 25.625,46.25 23.625,43.5 22.375,41.5 21.875,40.25 22.125,39.75 22.0625,39.125 21.6875,38.375 21.0,37.5 20.0,36.5 19.3125,35.5625 18.9375,34.6875 18.875,33.875 19.125,33.125 19.0625,32.3125 18.6875,31.4375 18.0,30.5 17.0,29.5 16.25,28.5 15.75,27.5 15.5,26.5 15.5,25.5 15.3125,24.5625 14.9375,23.6875 14.375,22.875 13.625,22.125 12.875,21.1875 12.125,20.0625 11.375,18.75 10.625,17.25 10.09375,15.65625 9.78125,13.96875 9.6875,12.1875 9.8125,10.3125 10.71875,9.46875 12.40625,9.65625 14.875,10.875 18.125,13.125 21.6875,15.3125 25.5625,17.4375 29.75,19.5 34.25,21.5 38.0,23.3125 41.0,24.9375 43.25,26.375 44.75,27.625 46.0,28.5 47.0,29.0 47.75,29.125 48.25,28.875 48.75,28.75 49.25,28.75 49.75,28.875 50.25,29.125 51.5,29.9375 53.5,31.3125 56.25,33.25 59.75,35.75 62.71875,38.03125 65.15625,40.09375 67.0625,41.9375 68.4375,43.5625 70.15625,46.28125 72.21875,50.09375 74.625,55.0 77.375,61.0 79.84375,65.96875 82.03125,69.90625 83.9375,72.8125 85.5625,74.6875 87.21875,76.09375 88.90625,77.03125 90.625,77.5 92.375,77.5 94.125,77.375 95.875,77.125 97.625,76.75 99.375,76.25 101.5,76.0 104.0,76.0 106.875,76.25 110.125,76.75 113.28125,77.78125 116.34375,79.34375 119.3125,81.4375 122.1875,84.0625 124.3125,86.125 125.6875,87.625 126.3125,88.5625 126.1875,88.9375 126.03125,89.15625 125.84375,89.21875 125.625,89.125 125.375,88.875 124.6875,88.75 123.5625,88.75 122.0,88.875 120.0,89.125 118.125,89.5 116.375,90.0 114.75,90.625 113.25,91.375 111.90625,92.15625 110.71875,92.96875 109.6875,93.8125 108.8125,94.6875 108.3125,95.5625 108.1875,96.4375 108.4375,97.3125 109.0625,98.1875 109.78125,98.96875 110.59375,99.65625 111.5,100.25 112.5,100.75 113.59375,101.46875 114.78125,102.40625 116.0625,103.5625 117.4375,104.9375 118.71875,106.34375 119.90625,107.78125 121.0,109.25 122.0,110.75 122.875,112.25 123.625,113.75 124.25,115.25 124.75,116.75 125.3125,118.8125 125.9375,121.4375 126.625,124.625 127.375,128.375 127.875,132.25 128.125,136.25 128.125,140.375 127.875,144.625 127.59375,147.96875 127.28125,150.40625 126.9375,151.9375 126.5625,152.5625 126.28125,153.03125 126.09375,153.34375 126.0,153.5 126.0,153.5 125.6875,153.1875 125.0625,152.5625" stroke="none" /></svg>