<?xml version="1.0" encoding="utf-8" ?>
<svg baseProfile="full" height="136" version="1.1" viewBox="0,0,160,136" width="160" xmlns="http://www.w3.org/2000/svg" xmlns:ev="http://www.w3.org/2001/xml-events" xmlns:xlink="http://www.w3.org/1999/xlink"><defs /><polygon fill="black" points="149.5,127.125 148.5,126.875 147.5,126.5 146.5,126.0 145.5,125.375 144.5,124.625 143.6875,124.125 143.0625,123.875 142.625,123.875 142.375,124.125 141.9375,124.25 141.3125,124.25 140.5,124.125 139.5,123.875 138.0,123.0 136.0,121.5 133.5,119.375 130.5,116.625 127.75,114.375 125.25,112.625 123.0,111.375 121.0,110.625 119.1875,109.75 117.5625,108.75 116.125,107.625 114.875,106.375 112.6875,105.125 109.5625,103.875 105.5,102.625 100.5,101.375 96.4375,100.25 93.3125,99.25 91.125,98.375 89.875,97.625 87.75,97.0625 84.75,96.6875 80.875,96.5 76.125,96.5 72.125,96.6875 68.875,97.0625 66.375,97.625 64.625,98.375 62.96875,99.21875 61.40625,100.15625 59.9375,101.1875 58.5625,102.3125 57.03125,103.90625 55.34375,105.96875 53.5,108.5 51.5,111.5 49.78125,113.90625 48.34375,115.71875 47.1875,116.9375 46.3125,117.5625 45.34375,118.03125 44.28125,118.34375 43.125,118.5 41.875,118.5 40.5625,118.1875 39.1875,117.5625 37.75,116.625 36.25,115.375 34.9375,114.375 33.8125,113.625 32.875,113.125 32.125,112.875 31.28125,112.21875 30.34375,111.15625 29.3125,109.6875 28.1875,107.8125 27.34375,106.09375 26.78125,104.53125 26.5,103.125 26.5,101.875 27.71875,100.46875 30.15625,98.90625 33.8125,97.1875 38.6875,95.3125 42.8125,93.375 46.1875,91.375 48.8125,89.3125 50.6875,87.1875 52.03125,85.21875 52.84375,83.40625 53.125,81.75 52.875,80.25 52.125,78.375 50.875,76.125 49.125,73.5 46.875,70.5 44.6875,67.25 42.5625,63.75 40.5,60.0 38.5,56.0 37.0,52.875 36.0,50.625 35.5,49.25 35.5,48.75 34.5625,47.1875 32.6875,44.5625 29.875,40.875 26.125,36.125 23.25,32.375 21.25,29.625 20.125,27.875 19.875,27.125 19.125,26.0 17.875,24.5 16.125,22.625 13.875,20.375 12.0,18.125 10.5,15.875 9.375,13.625 8.625,11.375 8.59375,9.71875 9.28125,8.65625 10.6875,8.1875 12.8125,8.3125 15.96875,9.03125 20.15625,10.34375 25.375,12.25 31.625,14.75 37.0,17.0 41.5,19.0 45.125,20.75 47.875,22.25 50.5625,23.5625 53.1875,24.6875 55.75,25.625 58.25,26.375 60.59375,27.40625 62.78125,28.71875 64.8125,30.3125 66.6875,32.1875 68.59375,34.65625 70.53125,37.71875 72.5,41.375 74.5,45.625 76.34375,49.21875 78.03125,52.15625 79.5625,54.4375 80.9375,56.0625 82.28125,57.28125 83.59375,58.09375 84.875,58.5 86.125,58.5 87.875,58.0625 90.125,57.1875 92.875,55.875 96.125,54.125 98.875,52.8125 101.125,51.9375 102.875,51.5 104.125,51.5 105.125,51.4375 105.875,51.3125 106.375,51.125 106.625,50.875 106.875,50.75 107.125,50.75 107.375,50.875 107.625,51.125 108.5,51.375 110.0,51.625 112.125,51.875 114.875,52.125 117.03125,52.40625 118.59375,52.71875 119.5625,53.0625 119.9375,53.4375 119.59375,54.34375 118.53125,55.78125 116.75,57.75 114.25,60.25 112.25,62.4375 110.75,64.3125 109.75,65.875 109.25,67.125 109.03125,68.21875 109.09375,69.15625 109.4375,69.9375 110.0625,70.5625 110.84375,71.03125 111.78125,71.34375 112.875,71.5 114.125,71.5 115.3125,71.625 116.4375,71.875 117.5,72.25 118.5,72.75 120.09375,74.15625 122.28125,76.46875 125.0625,79.6875 128.4375,83.8125 131.78125,88.28125 135.09375,93.09375 138.375,98.25 141.625,103.75 144.375,108.75 146.625,113.25 148.375,117.25 149.625,120.75 150.53125,123.46875 151.09375,125.40625 151.3125,126.5625 151.1875,126.9375 151.09375,127.21875 151.03125,127.40625 151.0,127.5 151.0,127.5 150.75,127.4375 150.25,127.3125" stroke="none" /></svg>