<?xml version="1.0" encoding="utf-8" ?>
<svg baseProfile="full" height="145" version="1.1" viewBox="0,0,165,145" width="165" xmlns="http://www.w3.org/2000/svg" xmlns:ev="http://www.w3.org/2001/xml-events" xmlns:xlink="http://www.w3.org/1999/xlink"><defs /><polygon fill="black" points="154.875,135.75 154.125,135.25 153.1875,134.8125 152.0625,134.4375 150.75,134.125 149.25,133.875 147.5625,133.0625 145.6875,131.6875 143.625,129.75 141.375,127.25 139.625,125.4375 138.375,124.3125 137.625,123.875 137.375,124.125 136.8125,124.0625 135.9375,123.6875 134.75,123.0 133.25,122.0 131.4375,120.625 129.3125,118.875 126.875,116.75 124.125,114.25 122.0,112.4375 120.5,111.3125 119.625,110.875 119.375,111.125 118.3125,110.9375 116.4375,110.3125 113.75,109.25 110.25,107.75 107.4375,106.4375 105.3125,105.3125 103.875,104.375 103.125,103.625 102.0,102.8125 100.5,101.9375 98.625,101.0 96.375,100.0 94.3125,98.9375 92.4375,97.8125 90.75,96.625 89.25,95.375 86.875,94.5 83.625,94.0 79.5,93.875 74.5,94.125 70.21875,94.78125 66.65625,95.84375 63.8125,97.3125 61.6875,99.1875 60.09375,100.71875 59.03125,101.90625 58.5,102.75 58.5,103.25 58.15625,104.03125 57.46875,105.09375 56.4375,106.4375 55.0625,108.0625 53.53125,109.21875 51.84375,109.90625 50.0,110.125 48.0,109.875 45.90625,109.09375 43.71875,107.78125 41.4375,105.9375 39.0625,103.5625 37.15625,101.21875 35.71875,98.90625 34.75,96.625 34.25,94.375 34.09375,92.46875 34.28125,90.90625 34.8125,89.6875 35.6875,88.8125 36.71875,88.15625 37.90625,87.71875 39.25,87.5 40.75,87.5 42.5,87.3125 44.5,86.9375 46.75,86.375 49.25,85.625 51.40625,84.78125 53.21875,83.84375 54.6875,82.8125 55.8125,81.6875 56.78125,80.59375 57.59375,79.53125 58.25,78.5 58.75,77.5 59.125,76.5625 59.375,75.6875 59.5,74.875 59.5,74.125 58.5,72.5625 56.5,70.1875 53.5,67.0 49.5,63.0 46.0625,59.375 43.1875,56.125 40.875,53.25 39.125,50.75 37.8125,48.75 36.9375,47.25 36.5,46.25 36.5,45.75 36.0625,44.9375 35.1875,43.8125 33.875,42.375 32.125,40.625 30.0625,38.3125 27.6875,35.4375 25.0,32.0 22.0,28.0 19.125,24.375 16.375,21.125 13.75,18.25 11.25,15.75 9.4375,13.8125 8.3125,12.4375 7.875,11.625 8.125,11.375 8.25,11.0 8.25,10.5 8.125,9.875 7.875,9.125 8.15625,8.65625 8.96875,8.46875 10.3125,8.5625 12.1875,8.9375 13.78125,9.34375 15.09375,9.78125 16.125,10.25 16.875,10.75 17.625,11.125 18.375,11.375 19.125,11.5 19.875,11.5 20.625,11.625 21.375,11.875 22.125,12.25 22.875,12.75 23.625,13.125 24.375,13.375 25.125,13.5 25.875,13.5 28.3125,14.125 32.4375,15.375 38.25,17.25 45.75,19.75 52.25,22.0 57.75,24.0 62.25,25.75 65.75,27.25 68.78125,28.78125 71.34375,30.34375 73.4375,31.9375 75.0625,33.5625 76.65625,35.53125 78.21875,37.84375 79.75,40.5 81.25,43.5 82.78125,46.15625 84.34375,48.46875 85.9375,50.4375 87.5625,52.0625 89.03125,53.28125 90.34375,54.09375 91.5,54.5 92.5,54.5 94.125,54.0625 96.375,53.1875 99.25,51.875 102.75,50.125 106.0625,48.8125 109.1875,47.9375 112.125,47.5 114.875,47.5 116.96875,48.09375 118.40625,49.28125 119.1875,51.0625 119.3125,53.4375 119.15625,55.46875 118.71875,57.15625 118.0,58.5 117.0,59.5 116.0,60.8125 115.0,62.4375 114.0,64.375 113.0,66.625 112.53125,68.53125 112.59375,70.09375 113.1875,71.3125 114.3125,72.1875 115.65625,72.96875 117.21875,73.65625 119.0,74.25 121.0,74.75 122.6875,75.25 124.0625,75.75 125.125,76.25 125.875,76.75 126.84375,77.65625 128.03125,78.96875 129.4375,80.6875 131.0625,82.8125 133.03125,85.96875 135.34375,90.15625 138.0,95.375 141.0,101.625 143.6875,107.0 146.0625,111.5 148.125,115.125 149.875,117.875 151.375,120.5 152.625,123.0 153.625,125.375 154.375,127.625 154.96875,129.65625 155.40625,131.46875 155.6875,133.0625 155.8125,134.4375 155.90625,135.46875 155.96875,136.15625 156.0,136.5 156.0,136.5 155.8125,136.375 155.4375,136.125" stroke="none" /></svg>