<?xml version="1.0" encoding="utf-8" ?>
<svg baseProfile="full" height="128" version="1.1" viewBox="0,0,125,128" width="125" xmlns="http://www.w3.org/2000/svg" xmlns:ev="http://www.w3.org/2001/xml-events" xmlns:xlink="http://www.w3.org/1999/xlink"><defs /><polygon fill="black" points="14.875,119.5 14.125,119.5 13.4375,119.375 12.8125,119.125 12.25,118.75 11.75,118.25 11.25,117.875 10.75,117.625 10.25,117.5 9.75,117.5 9.28125,117.40625 8.84375,117.21875 8.4375,116.9375 8.0625,116.5625 7.78125,116.09375 7.59375,115.53125 7.5,114.875 7.5,114.125 8.6875,112.25 11.0625,109.25 14.625,105.125 19.375,99.875 23.0625,95.625 25.6875,92.375 27.25,90.125 27.75,88.875 28.6875,87.1875 30.0625,85.0625 31.875,82.5 34.125,79.5 36.0625,76.5625 37.6875,73.6875 39.0,70.875 40.0,68.125 41.625,64.9375 43.875,61.3125 46.75,57.25 50.25,52.75 53.625,48.5625 56.875,44.6875 60.0,41.125 63.0,37.875 65.625,34.4375 67.875,30.8125 69.75,27.0 71.25,23.0 72.84375,19.53125 74.53125,16.59375 76.3125,14.1875 78.1875,12.3125 79.90625,10.78125 81.46875,9.59375 82.875,8.75 84.125,8.25 85.5625,7.875 87.1875,7.625 89.0,7.5 91.0,7.5 92.8125,7.625 94.4375,7.875 95.875,8.25 97.125,8.75 98.4375,9.5 99.8125,10.5 101.25,11.75 102.75,13.25 104.0625,14.375 105.1875,15.125 106.125,15.5 106.875,15.5 107.96875,15.84375 109.40625,16.53125 111.1875,17.5625 113.3125,18.9375 114.875,20.0625 115.875,20.9375 116.3125,21.5625 116.1875,21.9375 115.53125,22.28125 114.34375,22.59375 112.625,22.875 110.375,23.125 108.34375,23.59375 106.53125,24.28125 104.9375,25.1875 103.5625,26.3125 102.53125,27.40625 101.84375,28.46875 101.5,29.5 101.5,30.5 101.6875,31.5625 102.0625,32.6875 102.625,33.875 103.375,35.125 104.0625,36.625 104.6875,38.375 105.25,40.375 105.75,42.625 106.125,45.0 106.375,47.5 106.5,50.125 106.5,52.875 106.375,55.5625 106.125,58.1875 105.75,60.75 105.25,63.25 104.6875,65.5625 104.0625,67.6875 103.375,69.625 102.625,71.375 101.53125,73.34375 100.09375,75.53125 98.3125,77.9375 96.1875,80.5625 93.5625,83.1875 90.4375,85.8125 86.8125,88.4375 82.6875,91.0625 80.0625,93.5 78.9375,95.75 79.3125,97.8125 81.1875,99.6875 83.09375,101.09375 85.03125,102.03125 87.0,102.5 89.0,102.5 90.59375,102.59375 91.78125,102.78125 92.5625,103.0625 92.9375,103.4375 93.15625,103.78125 93.21875,104.09375 93.125,104.375 92.875,104.625 92.71875,104.96875 92.65625,105.40625 92.6875,105.9375 92.8125,106.5625 92.34375,106.96875 91.28125,107.15625 89.625,107.125 87.375,106.875 85.5625,106.8125 84.1875,106.9375 83.25,107.25 82.75,107.75 82.3125,108.0625 81.9375,108.1875 81.625,108.125 81.375,107.875 80.6875,107.75 79.5625,107.75 78.0,107.875 76.0,108.125 74.125,108.125 72.375,107.875 70.75,107.375 69.25,106.625 67.75,106.125 66.25,105.875 64.75,105.875 63.25,106.125 61.96875,106.15625 60.90625,105.96875 60.0625,105.5625 59.4375,104.9375 59.0625,104.5 58.9375,104.25 59.0625,104.1875 59.4375,104.3125 59.875,104.25 60.375,104.0 60.9375,103.5625 61.5625,102.9375 61.96875,102.28125 62.15625,101.59375 62.125,100.875 61.875,100.125 61.53125,99.40625 61.09375,98.71875 60.5625,98.0625 59.9375,97.4375 59.09375,96.96875 58.03125,96.65625 56.75,96.5 55.25,96.5 53.75,96.6875 52.25,97.0625 50.75,97.625 49.25,98.375 47.9375,98.875 46.8125,99.125 45.875,99.125 45.125,98.875 44.375,98.75 43.625,98.75 42.875,98.875 42.125,99.125 40.0,100.5625 36.5,103.1875 31.625,107.0 25.375,112.0 20.6875,115.75 17.5625,118.25 16.0,119.5 16.0,119.5 15.8125,119.5 15.4375,119.5" stroke="none" /></svg>