<svg width="267" height="112" viewBox="0 0 267 112" fill="none" xmlns="http://www.w3.org/2000/svg">
<g clip-path="url(#clip0_19_2)">
<path d="M181.235 100H180.601L180.02 99.894L179.492 99.6819L179.016 99.3638L178.593 98.9397L178.171 98.6216L177.748 98.4096L177.325 98.3036H176.902L176.506 98.224L176.136 98.065L175.793 97.8264L175.476 97.5084L175.238 97.1108L175.079 96.6336L175 96.077V95.4408L176.004 93.8504L178.012 91.3058L181.024 87.8069L185.04 83.3538L188.158 79.7489L190.377 76.9922L191.698 75.0837L192.121 74.0234L192.914 72.5921L194.076 70.7896L195.609 68.6161L197.511 66.0714L199.149 63.5798L200.523 61.1412L201.633 58.7556L202.478 56.423L203.852 53.7193L205.755 50.6445L208.186 47.1987L211.145 43.3817L213.998 39.8298L216.746 36.543L219.388 33.5212L221.925 30.7645L224.144 27.8488L226.047 24.774L227.632 21.5402L228.9 18.1473L230.248 15.2051L231.674 12.7134L233.18 10.6724L234.766 9.08203L236.219 7.7832L237.54 6.77595L238.729 6.06027L239.786 5.63616L241.001 5.31808L242.375 5.10603L243.908 5H245.599L247.131 5.10603L248.505 5.31808L249.72 5.63616L250.777 6.06027L251.887 6.69643L253.049 7.54464L254.265 8.60491L255.533 9.87723L256.643 10.8315L257.594 11.4676L258.387 11.7857H259.021L259.945 12.0773L261.161 12.6604L262.667 13.5352L264.464 14.7015L265.785 15.6557L266.63 16.3979L267 16.928L266.894 17.2461L266.339 17.5377L265.335 17.8027L263.882 18.0413L261.98 18.2533L260.262 18.6509L258.73 19.2341L257.383 20.0028L256.22 20.957L255.348 21.8848L254.767 22.786L254.476 23.6607V24.5089L254.635 25.4102L254.952 26.3644L255.427 27.3717L256.061 28.4319L256.643 29.7042L257.171 31.1886L257.647 32.885L258.07 34.7935L258.387 36.808L258.598 38.9286L258.704 41.1551V43.4877L258.598 45.7673L258.387 47.9939L258.07 50.1674L257.647 52.2879L257.171 54.2494L256.643 56.0519L256.061 57.6953L255.427 59.1797L254.503 60.8496L253.287 62.7051L251.781 64.7461L249.984 66.9727L247.765 69.1992L245.123 71.4258L242.058 73.6523L238.57 75.8789L236.351 77.9464L235.4 79.8549L235.717 81.6044L237.302 83.1948L238.914 84.3876L240.552 85.1828L242.217 85.5804H243.908L245.255 85.6599L246.259 85.8189L246.92 86.0575L247.237 86.3756L247.422 86.6671L247.474 86.9322L247.395 87.1708L247.184 87.3828L247.052 87.6744L246.999 88.0455L247.025 88.4961L247.131 89.0262L246.735 89.3708L245.836 89.5299L244.436 89.5033L242.534 89.2913L241.001 89.2383L239.839 89.3443L239.046 89.6094L238.623 90.0335L238.253 90.2985L237.936 90.4046L237.672 90.3516L237.461 90.1395L236.879 90.0335H235.928L234.607 90.1395L232.916 90.3516H231.331L229.851 90.1395L228.477 89.7154L227.209 89.0792L225.941 88.6551L224.673 88.4431H223.404L222.136 88.6551L221.053 88.6816L220.155 88.5226L219.441 88.178L218.913 87.6479L218.596 87.2768L218.49 87.0647L218.596 87.0117L218.913 87.1177L219.283 87.0647L219.705 86.8527L220.181 86.4816L220.709 85.9514L221.053 85.3948L221.211 84.8117L221.185 84.202L220.974 83.5658L220.683 82.9562L220.313 82.373L219.864 81.8164L219.335 81.2863L218.622 80.8887L217.724 80.6236L216.64 80.4911H215.372L214.104 80.6501L212.836 80.9682L211.567 81.4453L210.299 82.0815L209.19 82.5056L208.238 82.7176H207.446L206.812 82.5056L206.177 82.3996H205.543L204.909 82.5056L204.275 82.7176L202.478 83.9369L199.519 86.1635L195.397 89.3973L190.113 93.6384L186.15 96.8192L183.508 98.9397L182.187 100H182.028H181.711H181.235Z" fill="#94a3b8"/>
<path d="M85.8127 95.3886L84.9944 94.981L84.3041 94.5479L83.7415 94.0893L83.3068 93.6053L83 93.0957L83.358 92.1786L84.3808 90.8539L86.0684 89.1215L88.4208 86.9815L90.7476 84.9689L93.0489 83.0837L95.3246 81.3259L97.5747 79.6954L99.9527 77.7338L102.458 75.4409L105.092 72.8169L107.854 69.8617L110.283 66.932L112.379 64.0277L114.144 61.1489L115.576 58.2956L117.161 55.3404L118.9 52.2833L120.792 49.1243L122.837 45.8634L124.755 42.9846L126.545 40.488L128.207 38.3735L129.741 36.6411L131.633 34.7559L133.884 32.7178L136.492 30.5269L139.458 28.1831L141.785 25.9157L143.472 23.7248L144.521 21.6103L144.93 19.5722L145.39 17.738L145.901 16.1075L146.464 14.6809L147.077 13.458L147.819 12.2606L148.688 11.0887L149.686 9.94233L150.811 8.82139L152.217 7.82783L153.905 6.96165L155.873 6.22284L158.124 5.61142L159.862 5.20381L161.09 5H161.806L162.01 5.20381L162.419 5.35666L163.033 5.45857L163.851 5.50952H164.874L165.794 5.56047L166.613 5.66237L167.329 5.81523L167.942 6.01904L168.761 6.4776L169.783 7.19093L171.011 8.15901L172.443 9.38186L173.823 10.3499L175.153 11.0633L176.431 11.5218L177.659 11.7256L178.963 12.1078L180.344 12.6683L181.801 13.4071L183.335 14.3242L184 15.0885L183.795 15.6999L182.722 16.1585L180.778 16.4642L179.116 16.7954L177.735 17.152L176.636 17.5342L175.818 17.9418L174.974 18.4768L174.105 19.1391L173.21 19.9289L172.289 20.846L171.548 21.7377L170.985 22.6039L170.602 23.4446L170.397 24.2598L170.499 25.5845L170.908 27.4188L171.624 29.7626L172.647 32.6159L173.414 35.5202L173.926 38.4754L174.181 41.4815V44.5386L174.079 47.1372L173.874 49.2772L173.568 50.9586L173.158 52.1814L172.698 53.4043L172.187 54.6271L171.624 55.8499L171.011 57.0728L169.962 58.6268L168.479 60.512L166.562 62.7284L164.209 65.276L162.138 67.3905L160.348 69.0719L158.839 70.3203L157.612 71.1355L156.589 71.7469L155.771 72.1545L155.157 72.3583H154.748L154.16 72.5876L153.393 73.0462L152.447 73.734L151.322 74.6512L150.529 75.4919L150.069 76.2562L149.941 76.944L150.146 77.5554L150.632 78.3452L151.399 79.3133L152.447 80.4597L153.777 81.7844L154.978 82.8799L156.052 83.7461L156.998 84.383L157.817 84.7906L158.788 85.0963L159.913 85.3001L161.192 85.402H162.624L163.877 85.5294L164.951 85.7842L165.846 86.1663L166.562 86.6758L167.073 87.1344L167.38 87.542L167.482 87.8987L167.38 88.2044L167.15 88.3827L166.792 88.4336L166.306 88.3572L165.692 88.1534L164.874 88.0515H163.851L162.624 88.1534L161.192 88.3572L159.811 88.7648L158.482 89.3763L157.203 90.1915L155.976 91.2105L154.799 91.9748L153.674 92.4843L152.601 92.7391H151.578L150.35 92.5353L148.918 92.1277L147.282 91.5162L145.441 90.701L143.702 90.1405L142.066 89.8348L140.532 89.7839L139.1 89.9877L137.847 90.0132L136.773 89.8603L135.878 89.5291L135.162 89.0196L134.753 88.612L134.651 88.3063L134.855 88.1025L135.367 88.0006L135.878 87.7967L136.389 87.491L136.901 87.0834L137.412 86.5739L137.361 85.7077L136.747 84.4849L135.571 82.9054L133.832 80.9692L132.17 79.619L130.585 78.8547L129.076 78.6764L127.645 79.084L126.417 79.3897L125.394 79.5935L124.576 79.6954H123.963L123.4 79.5935L122.889 79.3897L122.428 79.084L122.019 78.6764L121.406 78.4726H120.587L119.565 78.6764L118.337 79.084L116.905 79.6954L115.269 80.5106L113.428 81.5297L111.382 82.7525L109.746 83.6697L108.518 84.2811L107.7 84.5868H107.291L106.064 85.1982L104.018 86.421L101.154 88.2553L97.4724 90.701L94.4041 92.6372L91.9494 94.0638L90.1084 94.981L88.881 95.3886L87.9605 95.6943L87.3468 95.8981L87.04 96L86.8354 95.8981L86.4263 95.6943L85.8127 95.3886Z" fill="#94a3b8"/>
<path d="M85.5142 112H84.4385L83.2553 111.892L81.9645 111.676L80.5662 111.352L79.0603 110.92L77.0703 109.732L74.5963 107.788L71.6383 105.088L68.1962 101.632L65.5071 99.0395L63.5709 97.3115L62.3877 96.4474H61.9574L61.0969 95.9074L59.8061 94.8274L58.0851 93.2073L55.9338 91.0472L53.8363 89.2112L51.7926 87.6991L49.8026 86.5111L47.8664 85.6471L46.3067 84.999L45.1235 84.567L44.3168 84.351H43.8865L43.4294 84.486L42.9453 84.756L42.4344 85.161L41.8966 85.7011L41.4932 86.2141L41.2243 86.7001L41.0898 87.1591V87.5911L41.2243 88.1041L41.4932 88.6982L41.8966 89.3732L42.4344 90.1292L42.4075 90.6962L41.8159 91.0743L40.6596 91.2633H38.9385L37.594 91.3173L36.6259 91.4253L36.0343 91.5873L35.8191 91.8033L35.12 91.9653L33.9368 92.0733L32.2695 92.1273H30.1182L28.3972 92.0193L27.1064 91.8033L26.2459 91.4793L25.8156 91.0472L25.2778 90.6692L24.6324 90.3452L23.8794 90.0752L23.0189 89.8592L21.8357 89.7512H20.3298L18.5012 89.8592L16.3499 90.0752L14.6288 90.1292L13.3381 90.0212L12.4775 89.7512L12.0473 89.3192L11.4826 88.9682L10.7834 88.6982L9.94976 88.5092L8.98168 88.4012L8.49764 88.2391V88.0231L8.98168 87.7531L9.94976 87.4291L11.2137 87.1861L12.7733 87.0241L14.6288 86.9431H16.7801L18.6894 86.6461L20.3567 86.0521L21.7819 85.161L22.9651 83.973L23.9601 82.812L24.7668 81.6779L25.3853 80.5709L25.8156 79.4908L25.4391 78.0328L24.2559 76.1967L22.266 73.9826L19.4693 71.3905L16.9953 68.7445L14.844 66.0444L13.0154 63.2903L11.5095 60.4822L10.2725 57.9441L9.30437 55.676L8.6052 53.6779L8.17494 51.9499L7.79846 49.9518L7.47577 47.6837L7.20686 45.1456L6.99173 42.3375L6.88416 40.1774V38.6654L6.99173 37.8013L7.20686 37.5853L7.42199 36.8833L7.63712 35.6953L7.85225 34.0212L8.06738 31.8611L8.49764 29.8091L9.14303 27.865L10.0035 26.0289L11.0792 24.3009L11.8859 22.7348L12.4238 21.3308L12.6927 20.0887V19.0087L12.3431 17.7936L11.6439 16.4436L10.5952 14.9585L9.19681 13.3385L7.63712 11.9884L5.91608 10.9084L4.03369 10.0984L1.98995 9.55834L0.64539 8.96432L0 8.3163L0.0537825 7.61427L0.806738 6.85824L1.69415 6.23722L2.71602 5.75121L3.87234 5.40019L5.16312 5.18419L6.83038 4.69817L8.87411 3.94214L11.2943 2.9161L14.091 1.62006L16.7264 0.702025L19.2004 0.162006L21.513 0L23.6643 0.216008L25.6811 0.621022L27.5635 1.21504L29.3115 1.99807L30.9249 2.97011L32.404 4.13115L33.7485 5.4812L34.9586 7.02025L36.0343 8.74831L37.0024 10.6924L37.8629 12.8525L38.6158 15.2285L39.2612 17.8206L40.1755 20.1967L41.3587 22.3568L42.8109 24.3009L44.5319 26.0289L46.1992 28.027L47.8126 30.2951L49.3723 32.8332L50.8782 35.6413L52.3304 38.7194L53.7287 42.0675L55.0733 45.6856L56.3641 49.5738L57.3321 52.6519L57.9775 54.92L58.3002 56.378V57.026L58.5154 57.9981L58.9456 59.2941L59.591 60.9142L60.4515 62.8582L61.0431 64.4783L61.3658 65.7743L61.4196 66.7464L61.2045 67.3944L61.3121 68.5284L61.7423 70.1485L62.4953 72.2546L63.5709 74.8467L65.9911 78.5188L69.7559 83.271L74.8652 89.1032L81.3191 96.0154L86.1596 101.362L89.3865 105.142L91 107.356V108.004L90.758 108.679L90.2739 109.381L89.5479 110.11L88.5798 110.866L87.8537 111.433L87.3697 111.811L87.1277 112H86.8587H86.3209H85.5142Z" fill="#94a3b8"/>
</g>
<defs>
<clipPath id="clip0_19_2">
<rect width="267" height="112" fill="white"/>
</clipPath>
</defs>
</svg>
